<svg width="109" height="110" viewBox="0 0 109 110" fill="none" xmlns="http://www.w3.org/2000/svg">
<rect y="0.799805" width="109" height="109" rx="4" fill="#151515"/>
<g clip-path="url(#clip0_884_11036)">
<rect width="82" height="82" transform="translate(13 14.7998)" fill="#151515"/>
<path fill-rule="evenodd" clip-rule="evenodd" d="M33.5 25.0518H38.6244V30.1762H33.5V25.0518ZM38.6269 30.1768H43.7494V35.3012H38.6269H38.625H33.5025V30.1768H38.625H38.6269ZM38.6269 35.3018H33.5025V40.4218H33.5V45.5462H38.6244V40.4262H38.625V45.5462H43.7494V40.4218H38.6269V35.3018ZM48.8769 40.4218H43.7525V45.5462H48.8769V40.4218ZM48.8769 45.5543H43.7525V50.6768V50.6787V55.8012H48.8769V50.6787V50.6768V45.5543ZM48.8769 55.8018H43.7525V60.9262H48.8769V55.8018ZM54.005 40.4218H59.125H59.1294H64.2494V45.5462H59.1294H59.125H54.005V40.4218ZM54.005 50.6787V55.8012H59.125H59.1294H64.2494V50.6787V50.6768V45.5543H59.1294H59.125H54.005V50.6768V50.6787ZM59.125 55.8018H54.005V60.9262H59.125H59.1294H64.2494V55.8018H59.1294H59.125ZM64.255 40.4218H69.3794V45.5462H64.255V40.4218ZM69.3794 45.5543H64.255V50.6768V50.6787V55.8012H69.3794V50.6787V50.6768V45.5543ZM69.38 40.4262V45.5462H74.5044V40.4262V40.4218V35.3018H69.38V40.4218V40.4262ZM69.38 45.5543H74.5025H74.5044H79.6269V50.6768V50.6787V55.8012H74.5044H74.5025H69.38V50.6787V50.6768V45.5543ZM69.38 55.8018H74.5025H74.5044H79.6269V60.9262H74.5044H74.5025H69.38V55.8018ZM69.3794 60.9268H64.255V66.0468V66.0512V71.1712H69.3794V66.0512V66.0468V60.9268ZM69.3794 71.1718H64.255V76.2962H69.3794V71.1718ZM64.255 76.3018H69.3794V81.4262H64.255V76.3018ZM74.5044 76.3018H69.38V81.4262H74.5044V76.3018ZM74.5025 81.4268H79.6269V86.5512H74.5025V81.4268ZM33.4994 81.4268H28.375V86.5512H33.4994V81.4268ZM69.38 60.9268H74.5025H74.5044H79.6269V66.0468V66.0512V71.1712H74.5044H74.5025H69.38V66.0512V66.0468V60.9268ZM43.7494 45.5543H38.625V50.6768V50.6787V55.8012H43.7494V50.6787V50.6768V45.5543ZM54.0044 55.8012V50.6787V50.6768V45.5543H48.88V50.6768V50.6787V55.8012H54.0044ZM48.88 40.4218H54.0044V45.5462H48.88V40.4218ZM54.0044 55.8018H48.88V60.9262H54.0044V55.8018ZM38.6244 45.5543H33.5V50.6768V50.6787V55.8012H38.6244V50.6787V50.6768V45.5543ZM33.4994 55.8012V50.6787V50.6768V45.5543H28.375V50.6768V50.6787V55.8012H33.4994ZM28.375 55.8018H33.4994V60.9262H28.375V55.8018ZM38.6244 55.8018H33.5V60.9262H38.6244V55.8018ZM28.3744 50.6768H23.25V55.8012H28.3744V50.6768ZM23.25 55.8018H28.3744V60.9262H23.25V55.8018ZM28.3744 60.9268H23.25V66.0512H28.3744V60.9268ZM18.125 55.8018H23.2494V60.9262H18.125V55.8018ZM18.1244 55.8018H13V60.9262H18.1244V55.8018ZM79.6275 50.6768H84.7519V55.8012H79.6275V50.6768ZM33.4994 60.9268H28.375V66.0468V66.0512V71.1712H33.4994V66.0512V66.0468V60.9268ZM79.6275 55.8018H84.7519V60.9262H79.6275V55.8018ZM84.7519 60.9268H79.6275V66.0512H84.7519V60.9268ZM84.7525 55.8018H89.8769V60.9262H84.7525V55.8018ZM95.0044 55.8018H89.88V60.9262H95.0044V55.8018ZM38.6244 60.9268H33.5V66.0468V66.0512V71.1712H38.6244V66.0512V66.0468V60.9268ZM38.625 60.9268H43.7494V66.0468V66.0512V71.1712H38.625V66.0512V66.0468V60.9268ZM38.625 71.1718H43.7494V76.2962H38.625V71.1718ZM43.7494 76.3018H38.6269H38.625H33.5025V81.4262H38.625H38.6269H43.7494V76.3018ZM48.8769 66.0468H43.7525V71.1712H48.8769V66.0468ZM43.7525 71.1718H48.8769V76.2962H43.7525V71.1718ZM48.8769 76.3018H43.7525V81.4262H48.8769V76.3018ZM48.88 66.0468H54.0044V71.1712H48.88V66.0468ZM54.0044 71.1718H48.88V76.2962H54.0044V71.1718ZM48.88 76.3018H54.0044V81.4262H48.88V76.3018ZM59.125 66.0468H54.005V71.1712H59.125H59.1294H64.2494V66.0468H59.1294H59.125ZM54.005 71.1718H59.125H59.1294H64.2494V76.2962H59.1294H59.125H54.005V71.1718ZM59.125 76.3018H54.005V81.4262H59.125H59.1294H64.2494V76.3018H59.1294H59.125ZM79.6269 30.1768H74.5044H74.5025H69.38V35.3012H74.5025H74.5044H79.6269V30.1768ZM28.375 30.1768H33.4994V35.3012H28.375V30.1768ZM69.3794 30.1768H64.255V35.3012H69.3794V30.1768ZM74.5044 25.0518H69.38V30.1762H74.5044V25.0518Z" fill="#FF5454"/>
<rect x="38.625" y="55.7998" width="5.12443" height="5.12443" fill="#151515"/>
<rect x="43.7524" y="60.9248" width="20.4977" height="5.12443" fill="#151515"/>
<rect x="64.2549" y="55.7998" width="5.12443" height="5.12443" fill="#151515"/>
</g>
<defs>
<clipPath id="clip0_884_11036">
<rect width="82" height="82" fill="white" transform="translate(13 14.7998)"/>
</clipPath>
</defs>
</svg>
