<svg width="109" height="110" viewBox="0 0 109 110" fill="none" xmlns="http://www.w3.org/2000/svg">
<rect y="0.799805" width="109" height="109" rx="4" fill="#151515"/>
<rect width="82" height="82" transform="translate(13 18.7998)" fill="#151515"/>
<path fill-rule="evenodd" clip-rule="evenodd" d="M33.5 23.9297H38.625H43.75V29.0497H48.875H54H59.125H64.25V23.9297H69.375H74.5V29.0497H79.625V34.1747H74.5H69.375H64.25H59.125H54H48.875H43.75H38.625H33.5H28.375V29.0497H33.5V23.9297ZM33.5 34.1797H28.375V39.2997H23.25V44.4247H28.375H33.5H38.625V39.3047H43.75V44.4247H48.875H54H59.125H64.25V39.3047H69.375V44.4247H74.5H79.625H84.75V39.2997H79.625V34.1797H74.5H69.375H64.25H59.125H54H48.875H43.75H38.625H33.5ZM23.25 44.4297H18.125V49.5547H13V54.6797V59.7997V59.8047V64.9247H18.125V59.8047H23.25V54.6797H28.375V59.8047H33.5V64.9247H38.625H43.75H48.875H54H59.125H64.25H69.375H74.5H79.625V59.8047V59.7997V54.6797H84.75V59.8047H89.875V64.9247H95V59.8047V59.7997V54.6797V49.5547H89.875V44.4297H84.75H79.625H74.5H69.375H64.25H59.125H54H48.875H43.75H38.625H33.5H28.375H23.25ZM43.75 54.6797V49.5547H48.875H54H59.125H64.25V54.6797V59.7997H59.125V54.6797H54H48.875H43.75ZM59.125 64.9297H64.25H69.375H74.5V70.0547H69.375V75.1747H64.25H59.125H54H48.875H43.75V70.0547H38.625H33.5V64.9297H38.625H43.75H48.875H54H59.125ZM59.125 75.1797H54H48.875V80.3047V85.4297H43.75V90.5547H48.875V85.4297H54V80.3047H59.125V75.1797Z" fill="#04BA70"/>
<rect x="69.375" y="44.4248" width="5.125" height="5.125" transform="rotate(180 69.375 44.4248)" fill="#151515"/>
<rect x="43.75" y="44.4248" width="5.125" height="5.125" transform="rotate(180 43.75 44.4248)" fill="#151515"/>
<path fill-rule="evenodd" clip-rule="evenodd" d="M43.75 54.6748H59.125V59.7998H64.25V54.6748V49.5498H43.75V54.6748Z" fill="#151515"/>
</svg>
