<svg width="109" height="110" viewBox="0 0 109 110" fill="none" xmlns="http://www.w3.org/2000/svg">
<rect y="0.799805" width="109" height="109" rx="4" fill="#151515"/>
<rect width="82" height="82" transform="translate(13 14.7998)" fill="#151515"/>
<path fill-rule="evenodd" clip-rule="evenodd" d="M38.6309 22.5039H33.5084H33.5081H28.3886H28.3856H23.2658V27.6231V27.6266V32.7458H28.3856H28.3886H33.5081H33.5084H38.6309V27.6266V27.6231V22.5039ZM33.5084 32.7539H38.6309V37.8731V37.8766V42.9931V42.9958V48.1158H33.5084H33.5081H28.3856V42.9958H23.2658V37.8766V37.8731V32.7539H28.3856H28.3886H33.5081H33.5084ZM33.5084 48.1181H38.6309V53.2408H33.5084H33.5081H28.3886V58.3572H33.5081H33.5084H38.6309V63.48H33.5084H33.5081H28.3886H28.3856H23.2658V58.3608V58.3572V53.2408V53.2381V48.1181H28.3856H28.3886H33.5081H33.5084ZM43.7552 63.4881H38.6331V68.6072V68.6108V73.7297V73.73V78.8525H43.7552H43.7559H48.8775H48.8779H54H54.0002H59.1227V73.73V73.7297V68.6108V68.6072V63.4881H54.0002H54H48.8779H48.8775H43.7559H43.7552ZM43.7552 78.8547H38.6331V83.9775H43.7552H43.7559H48.8775H48.8779H54H54.0002H59.1227V78.8547H54.0002H54H48.8779H48.8775H43.7559H43.7552ZM33.5084 83.9797H38.6309V89.1024H33.5084H33.5081H28.3856V83.9797H33.5081H33.5084ZM43.7552 83.9797H48.8775H48.8779H54H54.0002H59.1227V89.1024H54.0002H54H48.8779H48.8775H43.7552V83.9797ZM43.7552 48.1158H48.8775H48.8779H54H54.0002H59.1227V42.9958V42.9931V37.8766V37.8731V32.7539H54.0002H54H48.8779H48.8775H43.7559H43.7552H38.6331V37.8731V37.8766V42.9958H43.7552V48.1158ZM48.8779 27.6231H54.0002V32.7458H48.8779H48.8775H43.7559H43.7552H38.6331V27.6266V27.6231V22.5039H43.7552H43.7559H48.8779V27.6231ZM54 48.1181H48.8779H48.8775H43.7559H43.7552H38.6331V53.2381V53.2408V58.3572V58.3608V63.48H43.7552H43.7559H48.8775H48.8779H54H54.0002H59.1227V58.3572H54.0002V53.2408H59.1227V48.1181H54.0002H54ZM59.125 63.4881H64.2448H64.2477H69.3675V68.6072V68.6108V73.7297V73.73V78.8525H64.2477H64.2448H59.125V73.73V73.7297V68.6108V68.6072V63.4881ZM74.4925 68.6072H69.3698V73.7297V73.73V78.8525H74.4919H74.4925H79.6142H79.6146H84.7369V73.73H89.8567V68.6108V68.6072V63.4881H84.7339V68.6072V68.6108V73.7297H79.6146H79.6142H74.4925V68.6072ZM59.125 83.9797H64.2448H64.2477H69.3675V89.1024H64.2477H64.2448H59.125V83.9797ZM74.4919 78.8547H69.3698V83.9775H74.4919H74.4925H79.6146V78.8547H74.4925H74.4919ZM59.125 78.8547H64.2448H64.2477H69.3675V83.9775H64.2477H64.2448H59.125V78.8547ZM79.6142 53.2381H84.7339H84.7369H89.8567V58.3572V58.3608V63.48H84.7339V58.3608H79.6142V53.2381ZM89.8567 42.9931H84.7369V37.8731H79.6142V42.9931V42.9958V48.1158H84.7339H84.7369H89.8567V42.9931ZM94.9817 73.73V68.6108V68.6072V63.4881H89.8589V68.6072V68.6108V73.73H94.9817ZM89.8589 58.3572H94.9817V63.48H89.8589V58.3572ZM23.2636 32.7539H18.1413H18.1408H13.0186V37.8731V37.8766V42.9931V42.9958V48.1158H18.1408H18.1413H23.2636V42.9958V42.9931V37.8766V37.8731V32.7539ZM18.1408 27.6231H23.2636V32.7458H18.1408V27.6231ZM23.2636 48.1181H18.1413H18.1408H13.0186V53.2408H18.1408V58.3608H23.2636V53.2408V53.2381V48.1181ZM38.6309 63.4881H33.5081V68.6072V68.6108V73.7297V73.73V78.8525H38.6309V73.73V73.7297V68.6108V68.6072V63.4881Z" fill="#FE7435"/>
<rect x="23.2656" y="42.9932" width="5.12273" height="5.12273" fill="#151515"/>
<rect x="38.6328" y="42.9932" width="5.12273" height="5.12273" fill="#151515"/>
<rect x="28.3857" y="53.2432" width="10.2455" height="5.12273" fill="#151515"/>
</svg>
