<svg width="109" height="110" viewBox="0 0 109 110" fill="none" xmlns="http://www.w3.org/2000/svg">
<rect y="0.799805" width="109" height="109" rx="4" fill="#151515"/>
<g clip-path="url(#clip0_2121_278011)">
<rect width="82" height="82" transform="translate(13 14.7998)" fill="#151515"/>
<path fill-rule="evenodd" clip-rule="evenodd" d="M51.2676 25.0498H56.7331H56.7336H62.199H62.1997H67.6657V30.5151V30.5165V35.9818H62.1997H62.199H56.7336H56.7331H51.2676H51.2669H45.801V30.5165V30.5151V25.0498H51.2669H51.2676ZM56.7331 35.9821H51.2676H51.2669H45.801V41.4488H51.2669H51.2676H56.7331H56.7336H62.199H62.1997H67.6657V35.9821H62.1997H62.199H56.7336H56.7331ZM51.2676 41.45H56.7331H56.7336H62.1997V46.9166H56.7336H56.7331H51.2676H51.2669H45.801V41.45H51.2669H51.2676ZM56.7331 46.917H51.2676H51.2669H45.801V52.3823V52.3836V57.846V57.849V63.3126H51.2669H51.2676H56.7331H56.7336H62.199H62.1997H67.6657V57.849V57.846V52.3823H62.1997V46.917H56.7336H56.7331ZM56.7331 57.846V52.3836H51.2676V57.846H56.7331ZM56.7336 63.3213H51.2669V68.788H56.7336V63.3213ZM51.2669 68.7883H56.7336V74.2536V74.255V79.7173V79.7203V85.184H51.2669V79.7203V79.7173V74.255V74.2536V68.7883ZM67.6675 30.5165V35.9818H73.131H73.1342H78.5976V30.5151H73.1342V25.0498H67.6675V30.5151V30.5165ZM73.1312 46.917H67.6675V52.3823V52.3836V57.846V57.849V63.3126H73.1342V57.849H78.5976V52.3836H78.5978V46.917H73.1342H73.1312ZM67.6675 35.9821H73.131H73.1342H78.5976V41.4488H73.1342H73.131H67.6675V35.9821ZM34.869 30.5165H34.8688V25.0498H40.3325H40.3355H45.7992V30.5151V30.5165V35.9818H40.3357H40.3325H34.869V30.5165ZM34.8688 46.917H40.3355V52.3823H40.3357H45.7992V57.846V57.849V63.3126H40.3357H40.3325H34.869V57.849V57.846V52.3836H34.8688V46.917ZM34.869 35.9821H40.3325H40.3357H45.7992V41.4488H40.3357H40.3325H34.869V35.9821ZM34.8645 41.45H29.3988H29.3979H23.9321V46.9166H29.3979H29.3988H34.8645V41.45ZM34.8645 46.917H29.3979V52.3823V52.3836V57.846H23.9326V52.3823H18.4667H18.466H13V57.849H18.466H18.4667H23.9321V63.3126H29.3988V57.849H34.8645V52.3836V52.3823V46.917ZM67.6657 68.7883H62.199V74.2536V74.255V79.7173V79.7203V85.1826V85.184V90.6493H67.6657V85.184V85.1826V79.7203V79.7173V74.255V74.2536V68.7883ZM67.6675 79.7173H73.131V74.2536H78.5976V79.7173V79.7203V85.184H73.1342H73.131H67.6675V79.7173ZM78.6021 74.2536H84.0688V79.7203H78.6021V74.2536ZM67.6657 63.3213H62.199V68.788H67.6657V63.3213ZM29.3979 30.5151H34.8645V35.9818H29.3979V30.5151ZM29.3988 35.9821H34.8645V41.4488H29.3988H29.3979H23.9321V35.9821H29.3979H29.3988ZM78.5976 41.45H73.131V46.9166H78.5976V41.45ZM84.0679 57.846H78.6021V63.3126H84.0688V57.849H89.534H89.5345H95.0007V52.3823H89.5345H89.534H84.0679V57.846ZM84.0688 35.9821H78.6021V41.4488H84.0688V35.9821ZM78.6021 41.45H84.0688V46.9166H78.6021V41.45ZM40.3325 63.3213H45.7992V68.788H40.3325V63.3213ZM45.7992 68.7883H40.3325V74.2536V74.255V79.7173H34.869V85.184H40.3325V90.6493H45.7992V85.184V85.1826V79.7203V79.7173V74.255V74.2536V68.7883ZM34.8645 74.2536H29.3988H29.3979H23.9321V79.7203H29.3979V85.184H34.8645V79.7203V79.7173V74.2536Z" fill="#FFC800"/>
<path fill-rule="evenodd" clip-rule="evenodd" d="M51.2688 57.8516H56.7354V52.3849H51.2688V57.8516ZM67.6673 52.3862H62.2007V46.9196H67.6673V52.3862ZM67.6673 46.9192H73.1333V41.4526H67.6673H67.6666H62.2007V46.9192H67.6666H67.6673Z" fill="#151515"/>
<path fill-rule="evenodd" clip-rule="evenodd" d="M45.7993 52.3867H40.3327V46.9214H34.8667V41.4547H40.3327H40.3334H45.7993V46.9201V46.9214V52.3867Z" fill="#151515"/>
</g>
<defs>
<clipPath id="clip0_2121_278011">
<rect width="82" height="82" fill="white" transform="translate(13 14.7998)"/>
</clipPath>
</defs>
</svg>
