<svg width="81" height="80" viewBox="0 0 81 80" fill="none" xmlns="http://www.w3.org/2000/svg">
<rect x="1" y="0.5" width="79" height="79" rx="1.5" fill="white"/>
<rect x="1" y="0.5" width="79" height="79" rx="1.5" stroke="#EBEBEB"/>
<g clip-path="url(#clip0_1026_8122)">
<rect width="64" height="64" transform="translate(8.5 8)" fill="white"/>
<path fill-rule="evenodd" clip-rule="evenodd" d="M24.5 16.002H28.4996V20.0015H24.5V16.002ZM28.5014 20.002H32.4996V24.0015H28.5014H28.5H24.5018V20.002H28.5H28.5014ZM28.5014 24.002H24.5018V27.9982H24.5V31.9977H28.4996V28.0015H28.5V31.9977H32.4996V27.9982H28.5014V24.002ZM36.5015 27.9982H32.502V31.9977H36.5015V27.9982ZM36.5014 32.0038H32.5018V36.002V36.0033V40.0015H36.5014V36.0033V36.002V32.0038ZM36.5014 40.002H32.5018V44.0015H36.5014V40.002ZM40.5039 27.9982H44.5H44.5035H48.4996V31.9977H44.5035H44.5H40.5039V27.9982ZM40.5037 36.0033V40.0015H44.5H44.5032H48.4996V36.0033V36.002V32.0038H44.5032H44.5H40.5037V36.002V36.0033ZM44.5 40.002H40.5037V44.0015H44.5H44.5032H48.4996V40.002H44.5032H44.5ZM48.5039 27.9982H52.5035V31.9977H48.5039V27.9982ZM52.5032 32.0038H48.5037V36.002V36.0033V40.0015H52.5032V36.0033V36.002V32.0038ZM56.5035 27.9982H56.5032V24.002H52.5037V28.0015H52.5039V31.9977H56.5035V27.9982ZM52.5037 32.0038H56.5018H56.5032H60.5014V36.002V36.0033V40.0015H56.5032H56.5018H52.5037V36.0033V36.002V32.0038ZM52.5037 40.002H56.5018H56.5032H60.5014V44.0015H56.5032H56.5018H52.5037V40.002ZM52.5032 44.002H48.5037V48.0015H48.5039V51.9977H52.5035V47.9982H52.5032V44.002ZM52.5035 51.9982H48.5039V55.9977H52.5035V51.9982ZM48.5037 56.002H52.5032V60.0015H48.5037V56.002ZM56.5032 56.002H52.5037V60.0015H56.5032V56.002ZM56.5018 60.002H60.5014V64.0015H56.5018V60.002ZM24.4996 60.002H20.5V64.0015H24.4996V60.002ZM52.5037 44.002H56.5018H56.5032H60.5014V47.9982H60.5015V51.9977H56.5035H56.502H52.5039V48.0015H52.5037V44.002ZM32.4996 32.0038H28.5V36.002V36.0033V40.0015H32.4996V36.0033V36.002V32.0038ZM40.5032 40.0015V36.0033V36.002V32.0038H36.5037V36.002V36.0033V40.0015H40.5032ZM36.5039 27.9982H40.5035V31.9977H36.5039V27.9982ZM40.5032 40.002H36.5037V44.0015H40.5032V40.002ZM28.4996 32.0038H24.5V36.002V36.0033V40.0015H28.4996V36.0033V36.002V32.0038ZM24.4996 40.0015V36.0033V36.002V32.0038H20.5V36.002V36.0033V40.0015H24.4996ZM20.5 40.002H24.4996V44.0015H20.5V40.002ZM28.4996 40.002H24.5V44.0015H28.4996V40.002ZM20.4996 36.002H16.5V40.0015H20.4996V36.002ZM16.5 40.002H20.4996V44.0015H16.5V40.002ZM20.4996 44.002H16.5V48.0015H20.4996V44.002ZM12.5 40.002H16.4996V44.0015H12.5V40.002ZM12.4996 40.002H8.5V44.0015H12.4996V40.002ZM60.5018 36.002H64.5014V40.0015H60.5018V36.002ZM24.4996 44.002H20.5V47.9982V48.0015V51.9977H24.4996V48.0015V47.9982V44.002ZM60.5018 40.002H64.5014V44.0015H60.5018V40.002ZM64.5014 44.002H60.5018V48.0015H64.5014V44.002ZM64.5018 40.002H68.5014V44.0015H64.5018V40.002ZM72.5032 40.002H68.5037V44.0015H72.5032V40.002ZM28.4996 44.002H24.5V47.9982V48.0015V51.9977H28.4996V48.0015V47.9982V44.002ZM28.5 44.002H32.4996V47.9982V48.0015V51.9977H28.5V48.0015V47.9982V44.002ZM28.5 51.9982H32.4996V55.9977H28.5V51.9982ZM32.4996 56.002H28.5014H28.5H24.5018V60.0015H28.5H28.5014H32.4996V56.002ZM36.5015 47.9982H32.502V51.9977H36.5015V47.9982ZM32.502 51.9982H36.5015V55.9977H32.502V51.9982ZM36.5014 56.002H32.5018V60.0015H36.5014V56.002ZM36.5039 47.9982H40.5035V51.9977H36.5039V47.9982ZM40.5035 51.9982H36.5039V55.9977H40.5035V51.9982ZM36.5037 56.002H40.5032V60.0015H36.5037V56.002ZM44.5 47.9982H40.5039V51.9977H44.5H44.5035H48.4996V47.9982H44.5035H44.5ZM40.5039 51.9982H44.5H44.5035H48.4996V55.9977H44.5035H44.5H40.5039V51.9982ZM44.5 56.002H40.5037V60.0015H44.5H44.5032H48.4996V56.002H44.5032H44.5ZM60.5014 20.002H56.5032H56.5018H52.5037V24.0015H56.5018H56.5032H60.5014V20.002ZM20.5 20.002H24.4996V24.0015H20.5V20.002ZM52.5032 20.002H48.5037V24.0015H52.5032V20.002ZM56.5032 16.002H52.5037V20.0015H56.5032V16.002Z" fill="#FF5454"/>
<rect x="28.5" y="40" width="3.99955" height="3.99955" fill="white"/>
<rect x="32.502" y="44" width="15.9982" height="3.99955" fill="white"/>
<rect x="48.5037" y="40" width="3.99955" height="3.99955" fill="white"/>
</g>
<defs>
<clipPath id="clip0_1026_8122">
<rect width="64" height="64" fill="white" transform="translate(8.5 8)"/>
</clipPath>
</defs>
</svg>
