<svg width="81" height="80" viewBox="0 0 81 80" fill="none" xmlns="http://www.w3.org/2000/svg">
<rect x="1.125" y="0.5" width="79" height="79" rx="1.5" fill="white"/>
<rect x="1.125" y="0.5" width="79" height="79" rx="1.5" stroke="#EBEBEB"/>
<g clip-path="url(#clip0_1188_17270)">
<rect width="64" height="64" transform="translate(8.62695 8.00195)" fill="white"/>
<path fill-rule="evenodd" clip-rule="evenodd" d="M24.627 16.0039H28.6265V20.0035H24.627V16.0039ZM28.6283 20.0039H32.6265V24.0035H28.6283H28.627H24.6288V20.0039H28.627H28.6283ZM28.6283 24.0039H24.6288V28.0001H24.627V31.9997H28.6265V28.0035H28.627V31.9997H32.6265V28.0001H28.6283V24.0039ZM36.6285 28.0001H32.6289V31.9997H36.6285V28.0001ZM36.6283 32.0057H32.6288V36.0039V36.0053V40.0035H36.6283V36.0053V36.0039V32.0057ZM36.6283 40.0039H32.6288V44.0035H36.6283V40.0039ZM40.6309 28.0001H44.627H44.6304H48.6265V31.9997H44.6304H44.627H40.6309V28.0001ZM40.6306 36.0053V40.0035H44.627H44.6302H48.6265V36.0053V36.0039V32.0057H44.6302H44.627H40.6306V36.0039V36.0053ZM44.627 40.0039H40.6306V44.0035H44.627H44.6302H48.6265V40.0039H44.6302H44.627ZM48.6309 28.0001H52.6304V31.9997H48.6309V28.0001ZM52.6302 32.0057H48.6306V36.0039V36.0053V40.0035H52.6302V36.0053V36.0039V32.0057ZM56.6304 28.0001H56.6302V24.0039H52.6306V28.0035H52.6309V31.9997H56.6304V28.0001ZM52.6306 32.0057H56.6288H56.6302H60.6283V36.0039V36.0053V40.0035H56.6302H56.6288H52.6306V36.0053V36.0039V32.0057ZM52.6306 40.0039H56.6288H56.6302H60.6283V44.0035H56.6302H56.6288H52.6306V40.0039ZM52.6302 44.0039H48.6306V48.0035H48.6309V51.9997H52.6304V48.0001H52.6302V44.0039ZM52.6304 52.0001H48.6309V55.9997H52.6304V52.0001ZM48.6306 56.0039H52.6302V60.0035H48.6306V56.0039ZM56.6302 56.0039H52.6306V60.0035H56.6302V56.0039ZM56.6288 60.0039H60.6283V64.0035H56.6288V60.0039ZM24.6265 60.0039H20.627V64.0035H24.6265V60.0039ZM52.6306 44.0039H56.6288H56.6302H60.6283V48.0001H60.6285V51.9997H56.6304H56.6289H52.6309V48.0035H52.6306V44.0039ZM32.6265 32.0057H28.627V36.0039V36.0053V40.0035H32.6265V36.0053V36.0039V32.0057ZM40.6302 40.0035V36.0053V36.0039V32.0057H36.6306V36.0039V36.0053V40.0035H40.6302ZM36.6309 28.0001H40.6304V31.9997H36.6309V28.0001ZM40.6302 40.0039H36.6306V44.0035H40.6302V40.0039ZM28.6265 32.0057H24.627V36.0039V36.0053V40.0035H28.6265V36.0053V36.0039V32.0057ZM24.6265 40.0035V36.0053V36.0039V32.0057H20.627V36.0039V36.0053V40.0035H24.6265ZM20.627 40.0039H24.6265V44.0035H20.627V40.0039ZM28.6265 40.0039H24.627V44.0035H28.6265V40.0039ZM20.6265 36.0039H16.627V40.0035H20.6265V36.0039ZM16.627 40.0039H20.6265V44.0035H16.627V40.0039ZM20.6265 44.0039H16.627V48.0035H20.6265V44.0039ZM12.627 40.0039H16.6265V44.0035H12.627V40.0039ZM12.6265 40.0039H8.62695V44.0035H12.6265V40.0039ZM60.6288 36.0039H64.6283V40.0035H60.6288V36.0039ZM24.6265 44.0039H20.627V48.0001V48.0035V51.9997H24.6265V48.0035V48.0001V44.0039ZM60.6288 40.0039H64.6283V44.0035H60.6288V40.0039ZM64.6283 44.0039H60.6288V48.0035H64.6283V44.0039ZM64.6288 40.0039H68.6283V44.0035H64.6288V40.0039ZM72.6302 40.0039H68.6306V44.0035H72.6302V40.0039ZM28.6265 44.0039H24.627V48.0001V48.0035V51.9997H28.6265V48.0035V48.0001V44.0039ZM28.627 44.0039H32.6265V48.0001V48.0035V51.9997H28.627V48.0035V48.0001V44.0039ZM28.627 52.0001H32.6265V55.9997H28.627V52.0001ZM32.6265 56.0039H28.6283H28.627H24.6288V60.0035H28.627H28.6283H32.6265V56.0039ZM36.6285 48.0001H32.6289V51.9997H36.6285V48.0001ZM32.6289 52.0001H36.6285V55.9997H32.6289V52.0001ZM36.6283 56.0039H32.6288V60.0035H36.6283V56.0039ZM36.6309 48.0001H40.6304V51.9997H36.6309V48.0001ZM40.6304 52.0001H36.6309V55.9997H40.6304V52.0001ZM36.6306 56.0039H40.6302V60.0035H36.6306V56.0039ZM44.627 48.0001H40.6309V51.9997H44.627H44.6304H48.6265V48.0001H44.6304H44.627ZM40.6309 52.0001H44.627H44.6304H48.6265V55.9997H44.6304H44.627H40.6309V52.0001ZM44.627 56.0039H40.6306V60.0035H44.627H44.6302H48.6265V56.0039H44.6302H44.627ZM60.6283 20.0039H56.6302H56.6288H52.6306V24.0035H56.6288H56.6302H60.6283V20.0039ZM20.627 20.0039H24.6265V24.0035H20.627V20.0039ZM52.6302 20.0039H48.6306V24.0035H52.6302V20.0039ZM56.6302 16.0039H52.6306V20.0035H56.6302V16.0039Z" fill="#FF5454"/>
<rect x="28.627" y="40.002" width="3.99955" height="3.99955" fill="white"/>
<rect x="32.6289" y="44.002" width="15.9982" height="3.99955" fill="white"/>
<rect x="48.6309" y="40.002" width="3.99955" height="3.99955" fill="white"/>
</g>
<defs>
<clipPath id="clip0_1188_17270">
<rect width="64" height="64" fill="white" transform="translate(8.62695 8.00195)"/>
</clipPath>
</defs>
</svg>
