<svg width="49" height="48" viewBox="0 0 49 48" fill="none" xmlns="http://www.w3.org/2000/svg">
<rect x="0.75" width="48" height="48" fill="#DDDDDD"/>
<g clip-path="url(#clip0_1093_29429)">
<rect width="48" height="48" transform="translate(0.75)" fill="white"/>
<path fill-rule="evenodd" clip-rule="evenodd" d="M12.7508 6H15.7507V8.99997H12.7508V6ZM15.751 9.00013H18.7501V12.0001H15.751H15.7509V14.9961H18.75V17.9961H15.7509H15.75H12.751V15V14.9961V12H12.751V9.00013H15.7501H15.751ZM21.7509 14.9961H18.751V17.9961H21.7509V14.9961ZM21.7509 18H18.751V21H21.7509V18ZM18.751 21H21.7509V24H18.751V21ZM21.7509 24H18.751V27H21.7509V24ZM24.751 14.9961H27.7505H27.7509H30.7505V17.9961H27.7509H27.7505H24.751V14.9961ZM27.7505 21H24.751V24H27.7505H27.7509H30.7505V21H27.7509H27.7505ZM24.751 18H27.7505H27.7509H30.7505V21H27.7509H27.7505H24.751V18ZM27.7505 24H24.751V27H27.7505H27.7509H30.7505V24H27.7509H27.7505ZM30.751 14.9961H33.7509V17.9961H30.751V14.9961ZM33.7509 18H30.751V21H33.7509V18ZM30.751 21H33.7509V24H30.751V21ZM33.751 15V17.9961H36.7509V15V14.9961V12.0001H36.7511V9.00013H33.7512H33.7511H30.7513V12.0001H33.751V14.9961V15ZM33.751 18H36.7509V21H33.751V18ZM36.7509 21H33.751V24H36.7509V21ZM33.751 24H36.7509V26.9999H36.7511V29.9998H36.7509V32.9961H33.7514H33.751H30.7515V29.9998H30.7513V26.9999H33.751V24ZM33.7514 32.998H30.7515V35.998H33.7514V32.998ZM30.751 36H33.7509V39H30.751V36ZM36.7509 36H33.751V39H36.7509V36ZM36.752 39H39.7519V42H36.752V39ZM12.7509 39H9.75098V42H12.7509V39ZM36.752 21H39.7519V24H36.752V21ZM39.7519 24H36.752V27H36.752V29.9961H36.752V32.9961H39.7519V29.9998H39.752V27H39.7521V29.9998H42.7521V27H45.7514V24H42.7519H42.7515H39.752V26.9999H39.7519V24ZM18.75 18H15.7509H15.75H12.751V21H15.75H15.7509H18.75V18ZM15.7509 21H18.75V24H15.7509H15.75H12.751V21H15.75H15.7509ZM24.7509 21H21.751V24H24.7509V21ZM21.751 14.9961H24.7509V17.9961H21.751V14.9961ZM24.7509 18H21.751V21H24.7509V18ZM24.7509 24H21.751V27H24.7509V24ZM12.7509 21H9.75098V24H12.7509V21ZM9.75098 24H12.7509V26.9999H12.751V24H15.7509V26.9999H18.7501V29.9998H18.75V32.9961H15.7509H15.75H12.751V29.9998H12.7508V27H12.7506V29.9998H12.7505V32.9961H9.75049V29.9998H6.75076V26.9999H6.75098V24H9.75094V26.9999H9.75098V24ZM12.7509 18H9.75098V21H12.7509V18ZM36.752 18H39.7519V21H36.752V18ZM9.75094 21H6.75098V24H9.75094V21ZM3.75 24H6.74997V27H3.75V24ZM3.74997 24H0.75V27H3.74997V24ZM39.752 21H42.7519V24H39.752V21ZM48.7514 24H45.7515V27H48.7514V24ZM15.75 32.998H18.75V35.998H15.75V32.998ZM18.75 36H15.7509H15.75H12.751V39H15.75H15.7509H18.75V36ZM21.7509 29.9961H18.751V32.9961H21.7509V29.9961ZM18.751 32.998H21.7509V35.998H18.751V32.998ZM21.7509 36H18.751V39H21.7509V36ZM21.751 29.9961H24.7509V32.9961H21.751V29.9961ZM24.7509 32.998H21.751V35.998H24.7509V32.998ZM21.751 36H24.7509V39H21.751V36ZM27.7505 29.9961H24.751V32.9961H27.7505H27.7509H30.7505V29.9961H27.7509H27.7505ZM24.751 32.998H27.7505H27.7509H30.7505V35.998H27.7509H27.7505H24.751V32.998ZM27.7505 36H24.751V39H27.7505H27.7509H30.7505V36H27.7509H27.7505ZM39.752 9.00013H36.752V12.0001H39.752V9.00013ZM9.75088 9.00013H12.7509V12.0001H9.75088V9.00013ZM36.7511 6H33.7511V8.99997H36.7511V6Z" fill="#FF5454"/>
<rect x="15.75" y="24" width="2.99997" height="2.99997" fill="white"/>
<rect x="18.751" y="27" width="11.9999" height="2.99997" fill="white"/>
<rect x="30.7515" y="24" width="2.99997" height="2.99997" fill="white"/>
</g>
<defs>
<clipPath id="clip0_1093_29429">
<rect width="48" height="48" fill="white" transform="translate(0.75)"/>
</clipPath>
</defs>
</svg>
