<svg width="81" height="80" viewBox="0 0 81 80" fill="none" xmlns="http://www.w3.org/2000/svg">
<rect x="1.125" y="0.5" width="79" height="79" rx="1.5" fill="white"/>
<rect x="1.125" y="0.5" width="79" height="79" rx="1.5" stroke="#EBEBEB"/>
<g clip-path="url(#clip0_2121_219453)">
<path fill-rule="evenodd" clip-rule="evenodd" d="M64.6562 17.9688H68.6626V21.9751H64.6562V17.9688ZM28.604 21.9766H24.5977V25.9766V25.983V29.983H28.604V25.983V25.9766V21.9766ZM32.6115 25.9764H36.6179V29.9827H32.6119V29.983H28.6055V25.9766H32.6115V25.9764ZM20.5938 29.9883H24.5977H24.6001H28.604V33.9922V33.9947V37.9986H24.6001H24.5977H20.5938V33.9947V33.9922V29.9883ZM20.5938 42.0064V46.0078V46.0103V50.0142H24.5977H24.6001H28.604V46.0103V46.0078V42.0064V42.0039V38H24.6001H24.5977H20.5942H20.5938H16.5878V42.0064H20.5938ZM16.5878 50.0194H20.5942V54.0258H16.5878V50.0194ZM16.5865 54.0273H12.5801V58.0273H8.57422V62.0337H12.5806V58.0337H16.5865V54.0273ZM20.5943 54.0273H16.5879V58.0337H20.5943V54.0273ZM28.604 54.0273H24.5977V58.0337H28.604V54.0273ZM24.5977 50.0195H28.604V54.0259H24.5977V50.0195ZM32.6113 54.0273H28.6055V58.0337H32.6113H32.6119H36.6172H36.6177H40.6211H40.6236H44.6275V54.0273H40.6236H40.6211H36.6177H36.6172H32.6119H32.6113ZM28.6055 50.0142V46.0103V46.0078V42.0039H32.6113H32.6119H36.6172V38H40.6211H40.6236H44.6275V42.0039V42.0064V46.0078V46.0103V50.0142H40.6236H40.6211H36.6172V50.014H32.6119V50.0142H28.6055ZM36.6172 54.0258H32.6119V54.0259H28.6055V50.0195H32.6115V50.0194H36.6179V50.0195H40.6211H40.6236H44.6275V54.0259H40.6236H40.6211H36.6172V54.0258ZM28.6055 33.9947H32.6115V37.9988H36.6179V37.9986H40.6211H40.6236H44.6275V33.9947V33.9922V29.9883H40.6236H40.6211H36.6179V29.9882H32.6115V29.9883H28.6055V33.9947ZM48.6328 54.0273H44.6289V58.0337H48.6328H48.6353H52.6392V54.0273H48.6353H48.6328ZM48.6353 33.9947V37.9986H44.6289V33.9947V33.9922V29.9883H48.6328H48.6353H52.6392V33.9947H48.6353ZM52.6392 50.0142V46.0103V46.0078V42.0039H48.6353H48.6328H44.6289V46.0078V46.0103V50.0142H48.6328H48.6353H52.6392ZM48.6328 50.0195H44.6289V54.0259H48.6328H48.6353H52.6392V50.0195H48.6353H48.6328ZM48.6328 25.9766H44.6289V29.983H48.6328H48.6353H52.6392V25.9766H48.6353H48.6328ZM52.6406 54.0273H56.647V58.0337H52.6406V54.0273ZM52.6406 33.9947V37.9986H56.6465H56.647H60.6529V33.9947V33.9922V29.9883H56.647H56.6465H52.6406V33.9922V33.9947ZM52.6406 46.0103V46.0078V42.0064V42.0039V38H56.6465H56.647H60.6523H60.6529H64.6587V42.0064H60.6529V46.0078V46.0103V50.0142H56.647H56.6465H52.6406V46.0103ZM56.647 50.0195H52.6406V54.0259H56.647V50.0195ZM60.6523 50.0195H64.6587V54.0259H60.6523V50.0195ZM68.6626 54.0273H64.6587H64.6562H60.6523V58.0337H64.6562H64.6587H68.6626V54.0273ZM68.666 58.0273H72.6724V62.0337H68.666V58.0273ZM52.6406 29.983V25.983V25.9766V21.9766H56.647V25.9766V25.983V29.983H52.6406ZM64.6562 33.9922H68.6626V37.9986H64.6562V33.9922ZM16.5865 37.9986H12.5807V37.9988H8.57432V33.9946V33.9924V29.9882H12.5807V33.9922H16.5865V37.9986ZM68.666 29.9883H72.6724V33.9922V33.9947V37.9986H68.666V33.9947V33.9922V29.9883ZM68.6626 29.983V25.983V25.9766V21.9766H64.6562V25.9766V25.983V29.983H68.6626ZM12.5807 21.9764V21.9766H16.5865V25.9805V25.983V29.9869H12.5801V25.983V25.9827H8.57432V21.9764H12.5807ZM72.6724 21.9766H68.666V25.983H72.6724V21.9766ZM68.666 17.9688H72.6724V21.9751H68.666V17.9688ZM8.57422 17.9688H12.5801H12.5806H16.5865V21.9751H12.5806H12.5801H8.57422V17.9688Z" fill="#2C599D"/>
<path fill-rule="evenodd" clip-rule="evenodd" d="M28.6074 33.9961H32.6138V38.0025H28.6074V33.9961ZM28.6074 38.0037H32.6138V38.0039H36.6197V42.0103H32.6133V42.0101H28.6074V38.0037Z" fill="white"/>
<path fill-rule="evenodd" clip-rule="evenodd" d="M52.6412 33.9961H48.6348V38.0025H52.6412V33.9961ZM44.6289 38.0037H48.6353V38.0039H52.6412V42.0103H48.6348V42.0101H44.6289V38.0037Z" fill="white"/>
</g>
<defs>
<clipPath id="clip0_2121_219453">
<rect width="64" height="64" fill="white" transform="translate(8.625 8)"/>
</clipPath>
</defs>
</svg>
