<svg width="81" height="80" viewBox="0 0 81 80" fill="none" xmlns="http://www.w3.org/2000/svg">
<rect x="1" y="0.5" width="79" height="79" rx="1.5" fill="white"/>
<rect x="1" y="0.5" width="79" height="79" rx="1.5" stroke="#EBEBEB"/>
<g clip-path="url(#clip0_2121_247724)">
<path fill-rule="evenodd" clip-rule="evenodd" d="M64.5312 17.9688H68.5376V21.9751H64.5312V17.9688ZM28.479 21.9766H24.4727V25.9766V25.983V29.983H28.479V25.983V25.9766V21.9766ZM32.4865 25.9764H36.4929V29.9827H32.4869V29.983H28.4805V25.9766H32.4865V25.9764ZM20.4688 29.9883H24.4727H24.4751H28.479V33.9922V33.9947V37.9986H24.4751H24.4727H20.4688V33.9947V33.9922V29.9883ZM20.4688 42.0064V46.0078V46.0103V50.0142H24.4727H24.4751H28.479V46.0103V46.0078V42.0064V42.0039V38H24.4751H24.4727H20.4692H20.4688H16.4628V42.0064H20.4688ZM16.4628 50.0194H20.4692V54.0258H16.4628V50.0194ZM16.4615 54.0273H12.4551V58.0273H8.44922V62.0337H12.4556V58.0337H16.4615V54.0273ZM20.4693 54.0273H16.4629V58.0337H20.4693V54.0273ZM28.479 54.0273H24.4727V58.0337H28.479V54.0273ZM24.4727 50.0195H28.479V54.0259H24.4727V50.0195ZM32.4863 54.0273H28.4805V58.0337H32.4863H32.4869H36.4922H36.4927H40.4961H40.4986H44.5025V54.0273H40.4986H40.4961H36.4927H36.4922H32.4869H32.4863ZM28.4805 50.0142V46.0103V46.0078V42.0039H32.4863H32.4869H36.4922V38H40.4961H40.4986H44.5025V42.0039V42.0064V46.0078V46.0103V50.0142H40.4986H40.4961H36.4922V50.014H32.4869V50.0142H28.4805ZM36.4922 54.0258H32.4869V54.0259H28.4805V50.0195H32.4865V50.0194H36.4929V50.0195H40.4961H40.4986H44.5025V54.0259H40.4986H40.4961H36.4922V54.0258ZM28.4805 33.9947H32.4865V37.9988H36.4929V37.9986H40.4961H40.4986H44.5025V33.9947V33.9922V29.9883H40.4986H40.4961H36.4929V29.9882H32.4865V29.9883H28.4805V33.9947ZM48.5078 54.0273H44.5039V58.0337H48.5078H48.5103H52.5142V54.0273H48.5103H48.5078ZM48.5103 33.9947V37.9986H44.5039V33.9947V33.9922V29.9883H48.5078H48.5103H52.5142V33.9947H48.5103ZM52.5142 50.0142V46.0103V46.0078V42.0039H48.5103H48.5078H44.5039V46.0078V46.0103V50.0142H48.5078H48.5103H52.5142ZM48.5078 50.0195H44.5039V54.0259H48.5078H48.5103H52.5142V50.0195H48.5103H48.5078ZM48.5078 25.9766H44.5039V29.983H48.5078H48.5103H52.5142V25.9766H48.5103H48.5078ZM52.5156 54.0273H56.522V58.0337H52.5156V54.0273ZM52.5156 33.9947V37.9986H56.5215H56.522H60.5279V33.9947V33.9922V29.9883H56.522H56.5215H52.5156V33.9922V33.9947ZM52.5156 46.0103V46.0078V42.0064V42.0039V38H56.5215H56.522H60.5273H60.5279H64.5337V42.0064H60.5279V46.0078V46.0103V50.0142H56.522H56.5215H52.5156V46.0103ZM56.522 50.0195H52.5156V54.0259H56.522V50.0195ZM60.5273 50.0195H64.5337V54.0259H60.5273V50.0195ZM68.5376 54.0273H64.5337H64.5312H60.5273V58.0337H64.5312H64.5337H68.5376V54.0273ZM68.541 58.0273H72.5474V62.0337H68.541V58.0273ZM52.5156 29.983V25.983V25.9766V21.9766H56.522V25.9766V25.983V29.983H52.5156ZM64.5312 33.9922H68.5376V37.9986H64.5312V33.9922ZM16.4615 37.9986H12.4557V37.9988H8.44932V33.9946V33.9924V29.9882H12.4557V33.9922H16.4615V37.9986ZM68.541 29.9883H72.5474V33.9922V33.9947V37.9986H68.541V33.9947V33.9922V29.9883ZM68.5376 29.983V25.983V25.9766V21.9766H64.5312V25.9766V25.983V29.983H68.5376ZM12.4557 21.9764V21.9766H16.4615V25.9805V25.983V29.9869H12.4551V25.983V25.9827H8.44932V21.9764H12.4557ZM72.5474 21.9766H68.541V25.983H72.5474V21.9766ZM68.541 17.9688H72.5474V21.9751H68.541V17.9688ZM8.44922 17.9688H12.4551H12.4556H16.4615V21.9751H12.4556H12.4551H8.44922V17.9688Z" fill="#2C599D"/>
<path fill-rule="evenodd" clip-rule="evenodd" d="M28.4824 33.9961H32.4888V38.0025H28.4824V33.9961ZM28.4824 38.0037H32.4888V38.0039H36.4947V42.0103H32.4883V42.0101H28.4824V38.0037Z" fill="white"/>
<path fill-rule="evenodd" clip-rule="evenodd" d="M52.5162 33.9961H48.5098V38.0025H52.5162V33.9961ZM44.5039 38.0037H48.5103V38.0039H52.5162V42.0103H48.5098V42.0101H44.5039V38.0037Z" fill="white"/>
</g>
<defs>
<clipPath id="clip0_2121_247724">
<rect width="64" height="64" fill="white" transform="translate(8.5 8)"/>
</clipPath>
</defs>
</svg>
