<svg width="49" height="48" viewBox="0 0 49 48" fill="none" xmlns="http://www.w3.org/2000/svg">
<rect x="0.75" width="48" height="48" fill="white"/>
<g clip-path="url(#clip0_2121_184082)">
<path fill-rule="evenodd" clip-rule="evenodd" d="M42.7764 7.47656H45.7812V10.4814H42.7764V7.47656ZM15.7362 10.4824H12.7314V13.4824V13.4872V16.4872H15.7362V13.4872V13.4824V10.4824ZM15.7363 13.4824H18.7402H18.7411H21.745V16.4872H18.7411H18.7402H15.7363V13.4824ZM9.72754 16.4922H12.7314H12.7323H15.7362V19.4941V19.497V22.4989H12.7323H12.7314H9.72754V19.497V19.4941V16.4922ZM9.72754 25.5048V28.5059V28.5087V31.5107H12.7314H12.7323H15.7362V28.5087V28.5059V25.5048V25.5039V22.5H12.7323H12.7314H9.72754V25.5039V25.5048ZM6.72266 31.5156H9.72745V34.5195V34.5204V37.5243H6.72266V34.5204V34.5195V31.5156ZM6.72257 34.5195H3.71777V37.5195H0.713379V40.5243H3.71817V37.5243H6.72257V34.5195ZM12.7314 34.5204V37.5243H15.7362V34.5204V34.5195V31.5156H12.7314V34.5195V34.5204ZM21.745 34.5195V31.5156H18.7411H18.7402H15.7363V34.5195V34.5204V37.5243H18.7402H18.7411H21.745V34.5204V34.5195ZM15.7363 31.5107V28.5087V28.5059V25.5039H18.7402H18.7411H21.745V28.5059V28.5087V31.5107H18.7411H18.7402H15.7363ZM15.7363 16.4922H18.7402H18.7411H21.745V19.4941V19.497V22.4989H18.7402V19.497H15.7363V16.4922ZM33.7626 34.5204V37.5243H30.7587H30.7578H27.7539V34.5204V34.5195V31.5156H30.7578H30.7587H33.7626V34.5195V34.5204ZM30.7587 19.497V22.4989H27.7539V19.497V19.4941V16.4922H30.7578H30.7587H33.7626V19.497H30.7587ZM21.7451 37.5243V34.5204V34.5195V31.5156H24.7485H24.7499H27.7533V34.5195V34.5204V37.5243H24.7499H24.7485H21.7451ZM21.7451 19.497V22.4989H24.7485H24.7499H27.7533V19.497V19.4941V16.4922H24.7499H24.7485H21.7451V19.4941V19.497ZM21.7451 28.5087V28.5059V25.5048V25.5039V22.5H24.7485H24.7499H27.7533V25.5039V25.5048V28.5059V28.5087V31.5107H24.7499H24.7485H21.7451V28.5087ZM33.7626 31.5107V28.5087V28.5059V25.5039H30.7587H30.7578H27.7539V28.5059V28.5087V31.5107H30.7578H30.7587H33.7626ZM30.7578 13.4824H27.7539V16.4872H30.7578H30.7587H33.7626V13.4824H30.7587H30.7578ZM33.7632 37.5243V34.5204V34.5195V31.5156H36.768V34.5195V34.5204V37.5243H33.7632ZM33.7632 19.497V22.4989H36.7676H36.768H39.7724V19.497V19.4941V16.4922H36.768H36.7676H33.7632V19.4941V19.497ZM33.7632 28.5087V28.5059V25.5048V25.5039V22.5H36.7676H36.768H39.772H39.7724H42.7768V25.5048H39.7724V28.5059V28.5087V31.5107H36.768H36.7676H33.7632V28.5087ZM39.772 31.5156H42.7768V34.5195H45.7812V37.5243H42.7768H42.7764H39.772V34.5204V34.5195V31.5156ZM45.7812 37.5195H48.786V40.5243H45.7812V37.5195ZM33.7632 16.4872V13.4872V13.4824V10.4824H36.768V13.4824V13.4872V16.4872H33.7632ZM42.7764 19.4941H45.7812V22.4989H42.7764V19.4941ZM6.72257 22.4989H3.71817H3.71777H0.713379V19.497V19.4941V16.4922H3.71817V19.4941H6.72257V22.4989ZM45.7812 16.4922H48.786V19.4941V19.497V22.4989H45.7812V19.497V19.4941V16.4922ZM6.72266 22.5H9.72745V25.5048H6.72266V22.5ZM45.7812 16.4872V13.4872V13.4824V10.4824H42.7764V13.4824V13.4872V16.4872H45.7812ZM0.713379 10.4824H3.71777H3.71817H6.72257V13.4844V13.4872V16.4892H3.71777V13.4872H0.713379V10.4824ZM48.786 10.4824H45.7812V13.4872H48.786V10.4824ZM45.7812 7.47656H48.786V10.4814H45.7812V7.47656ZM0.713379 7.47656H3.71777H3.71817H6.72257V10.4814H3.71817H3.71777H0.713379V7.47656Z" fill="#2C599D"/>
<path fill-rule="evenodd" clip-rule="evenodd" d="M15.7368 19.4961H18.7416V22.5009H15.7368V19.4961ZM15.7368 22.502H18.7412H18.7416H21.746V25.5067H18.7416H18.7412H15.7368V22.502Z" fill="white"/>
<path fill-rule="evenodd" clip-rule="evenodd" d="M33.7636 19.4961H30.7588V22.5009H33.7636V19.4961ZM27.7544 22.502H30.7588H30.7592H33.7636V25.5067H30.7592H30.7588H27.7544V22.502Z" fill="white"/>
</g>
<defs>
<clipPath id="clip0_2121_184082">
<rect width="48" height="48" fill="white" transform="translate(0.75)"/>
</clipPath>
</defs>
</svg>
