<svg width="178" height="179" viewBox="0 0 178 179" fill="none" xmlns="http://www.w3.org/2000/svg">
<rect y="0.800781" width="178" height="178" rx="4" fill="#DDDDDD"/>
<rect width="178" height="179" rx="4" fill="white"/>
<g clip-path="url(#clip0_828_13325)">
<path fill-rule="evenodd" clip-rule="evenodd" d="M16.625 83.002H20.6246V87.0015H16.625V83.002ZM20.6264 87.002H24.6246V91.0015H20.6264H20.625H16.6268V87.002H20.625H20.6264ZM20.6264 91.002H16.6268V94.9982H16.625V98.9977H20.6246V95.0015H20.625V98.9977H24.6246V94.9982H20.6264V91.002ZM28.6265 94.9982H24.627V98.9977H28.6265V94.9982ZM28.6264 99.0038H24.6268V103.002V103.003V107.002H28.6264V103.003V103.002V99.0038ZM28.6264 107.002H24.6268V111.002H28.6264V107.002ZM32.6289 94.9982H36.625H36.6285H40.6246V98.9977H36.6285H36.625H32.6289V94.9982ZM32.6287 103.003V107.002H36.625H36.6282H40.6246V103.003V103.002V99.0038H36.6282H36.625H32.6287V103.002V103.003ZM36.625 107.002H32.6287V111.002H36.625H36.6282H40.6246V107.002H36.6282H36.625ZM40.6289 94.9982H44.6285V98.9977H40.6289V94.9982ZM44.6282 99.0038H40.6287V103.002V103.003V107.002H44.6282V103.003V103.002V99.0038ZM48.6285 94.9982H48.6282V91.002H44.6287V95.0015H44.6289V98.9977H48.6285V94.9982ZM44.6287 99.0038H48.6268H48.6282H52.6264V103.002V103.003V107.002H48.6282H48.6268H44.6287V103.003V103.002V99.0038ZM44.6287 107.002H48.6268H48.6282H52.6264V111.002H48.6282H48.6268H44.6287V107.002ZM44.6282 111.002H40.6287V115.002H40.6289V118.998H44.6285V114.998H44.6282V111.002ZM44.6285 118.998H40.6289V122.998H44.6285V118.998ZM40.6289 123.002H44.6285V127.002H40.6289V123.002ZM48.6282 123.002H44.6287V127.002H48.6282V123.002ZM48.6268 127.002H52.6264V131.002H48.6268V127.002ZM16.6246 127.002H12.625V131.002H16.6246V127.002ZM44.6287 111.002H48.6268H48.6282H52.6264V114.998H52.6265V118.998H48.6285H48.627H44.6289V115.002H44.6287V111.002ZM24.6246 99.0038H20.625V103.002V103.003V107.002H24.6246V103.003V103.002V99.0038ZM32.6282 107.002V103.003V103.002V99.0038H28.6287V103.002V103.003V107.002H32.6282ZM28.6289 94.9982H32.6285V98.9977H28.6289V94.9982ZM32.6282 107.002H28.6287V111.002H32.6282V107.002ZM20.6246 99.0038H16.625V103.002V103.003V107.002H20.6246V103.003V103.002V99.0038ZM16.6246 107.002V103.003V103.002V99.0038H12.625V103.002V103.003V107.002H16.6246ZM12.625 107.002H16.6246V111.002H12.625V107.002ZM20.6246 107.002H16.625V111.002H20.6246V107.002ZM12.6246 103.002H8.625V107.002H12.6246V103.002ZM8.625 107.002H12.6246V111.002H8.625V107.002ZM12.6246 111.002H8.625V115.002H12.6246V111.002ZM4.625 107.002H8.62455V111.002H4.625V107.002ZM4.62455 107.002H0.625V111.002H4.62455V107.002ZM52.6268 103.002H56.6264V107.002H52.6268V103.002ZM16.6246 111.002H12.625V114.998V115.002V118.998H16.6246V115.002V114.998V111.002ZM52.6268 107.002H56.6264V111.002H52.6268V107.002ZM56.6264 111.002H52.6268V115.002H56.6264V111.002ZM56.6268 107.002H60.6264V111.002H56.6268V107.002ZM64.6282 107.002H60.6287V111.002H64.6282V107.002ZM20.6246 111.002H16.625V114.998V115.002V118.998H20.6246V115.002V114.998V111.002ZM20.625 111.002H24.6246V114.998V115.002V118.998H20.625V115.002V114.998V111.002ZM20.625 118.998H24.6246V122.998H20.625V118.998ZM24.6246 123.002H20.6264V123.002H16.6268V127.002H20.625V127.002H24.6246V123.002ZM28.6265 114.998H24.627V118.998H28.6265V114.998ZM24.627 118.998H28.6265V122.998H24.627V118.998ZM28.6265 123.002H24.627V127.002H28.6265V123.002ZM28.6289 114.998H32.6285V118.998H28.6289V114.998ZM32.6285 118.998H28.6289V122.998H32.6285V118.998ZM28.6289 123.002H32.6285V127.002H28.6289V123.002ZM36.625 114.998H32.6289V118.998H36.625H36.6285H40.6246V114.998H36.6285H36.625ZM32.6289 118.998H36.625H36.6285H40.6246V122.998H36.6285H36.625H32.6289V118.998ZM36.625 123.002H32.6289V127.002H36.625H36.6285H40.6246V123.002H36.6285H36.625ZM52.6264 87.002H48.6282H48.6268H44.6287V91.0015H48.6268H48.6282H52.6264V87.002ZM12.625 87.002H16.6246V91.0015H12.625V87.002ZM44.6282 87.002H40.6287V91.0015H44.6282V87.002ZM48.6282 83.002H44.6287V87.0015H48.6282V83.002Z" fill="#FF5454"/>
<rect x="20.625" y="107" width="3.99955" height="3.99955" fill="white"/>
<rect x="24.627" y="111" width="15.9982" height="3.99955" fill="white"/>
<rect x="40.6289" y="107" width="3.99955" height="3.99955" fill="white"/>
</g>
<rect x="40.6289" y="158" width="3.99955" height="3.99955" fill="#EBEBEB"/>
<rect x="153.629" y="158" width="3.99955" height="3.99955" fill="#EBEBEB"/>
<rect x="44.625" y="158" width="3.99955" height="3.99955" fill="#EBEBEB"/>
<rect x="157.625" y="158" width="3.99955" height="3.99955" fill="#EBEBEB"/>
<rect x="20.625" y="158" width="3.99955" height="3.99955" fill="#EBEBEB"/>
<rect x="13.625" y="158" width="3.99955" height="3.99955" fill="#EBEBEB"/>
<rect x="48.625" y="158" width="3.99955" height="3.99955" fill="#EBEBEB"/>
<rect x="52.625" y="158" width="3.99955" height="3.99955" fill="#EBEBEB"/>
<rect x="133.625" y="158" width="3.99955" height="3.99955" fill="#EBEBEB"/>
<rect x="129.625" y="155" width="3.99955" height="3.99955" fill="#EBEBEB"/>
<rect x="165.625" y="155" width="3.99955" height="3.99955" fill="#EBEBEB"/>
<rect x="125.625" y="155" width="3.99955" height="3.99955" fill="#EBEBEB"/>
<rect x="161.625" y="155" width="3.99955" height="3.99955" fill="#EBEBEB"/>
<rect x="24.627" y="158" width="3.99955" height="3.99955" fill="#EBEBEB"/>
<rect x="137.627" y="158" width="3.99955" height="3.99955" fill="#EBEBEB"/>
<rect x="24.627" y="154" width="3.99955" height="3.99955" fill="#EBEBEB"/>
<rect x="24.627" y="162" width="3.99955" height="3.99955" fill="#EBEBEB"/>
<rect x="137.627" y="162" width="3.99955" height="3.99955" fill="#EBEBEB"/>
<rect x="28.6289" y="158" width="3.99955" height="3.99955" fill="#EBEBEB"/>
<rect x="141.629" y="158" width="3.99955" height="3.99955" fill="#EBEBEB"/>
<rect x="28.6289" y="154" width="3.99955" height="3.99955" fill="#EBEBEB"/>
<rect x="141.629" y="154" width="3.99955" height="3.99955" fill="#EBEBEB"/>
<rect x="28.6289" y="162" width="3.99955" height="3.99955" fill="#EBEBEB"/>
<rect x="141.629" y="162" width="3.99955" height="3.99955" fill="#EBEBEB"/>
<rect x="32.6289" y="158" width="3.99955" height="3.99955" fill="#EBEBEB"/>
<rect x="145.629" y="158" width="3.99955" height="3.99955" fill="#EBEBEB"/>
<rect x="32.6289" y="154" width="3.99955" height="3.99955" fill="#EBEBEB"/>
<rect x="145.629" y="154" width="3.99955" height="3.99955" fill="#EBEBEB"/>
<rect x="32.6289" y="162" width="3.99955" height="3.99955" fill="#EBEBEB"/>
<rect x="145.629" y="162" width="3.99955" height="3.99955" fill="#EBEBEB"/>
<rect x="36.625" y="158" width="3.99955" height="3.99955" fill="#EBEBEB"/>
<rect x="149.625" y="158" width="3.99955" height="3.99955" fill="#EBEBEB"/>
<rect x="36.625" y="154" width="3.99955" height="3.99955" fill="#EBEBEB"/>
<rect x="44.625" y="154" width="3.99955" height="3.99955" fill="#EBEBEB"/>
<rect x="149.625" y="154" width="3.99955" height="3.99955" fill="#EBEBEB"/>
<rect x="36.625" y="162" width="3.99955" height="3.99955" fill="#EBEBEB"/>
<rect x="149.625" y="162" width="3.99955" height="3.99955" fill="#EBEBEB"/>
<rect x="40.625" y="162" width="3.99955" height="3.99955" fill="#EBEBEB"/>
<rect x="153.625" y="162" width="3.99955" height="3.99955" fill="#EBEBEB"/>
<rect x="65.625" y="73" width="4" height="8" fill="#2C599D"/>
<rect x="71.625" y="75" width="4" height="8" transform="rotate(90 71.625 75)" fill="#2C599D"/>
<rect x="100.625" y="63" width="4" height="8" fill="#FF5454"/>
<rect x="106.625" y="65" width="4" height="8" transform="rotate(90 106.625 65)" fill="#FF5454"/>
<rect x="135" y="62" width="2" height="4" fill="#4B4B4B"/>
<rect x="138" y="63" width="2" height="4" transform="rotate(90 138 63)" fill="#4B4B4B"/>
<rect x="48.625" y="53" width="2" height="4" fill="#04BA70"/>
<rect x="51.625" y="54" width="2" height="4" transform="rotate(90 51.625 54)" fill="#04BA70"/>
<g clip-path="url(#clip1_828_13325)">
<path fill-rule="evenodd" clip-rule="evenodd" d="M74.625 113.004H78.625H82.625V117H86.625H90.625H94.625H98.625V113.004H102.625H106.625V117H110.625V121H106.625H102.625H98.625H94.625H90.625H86.625H82.625H78.625H74.625H70.625V117H74.625V113.004ZM74.625 121.004H70.625V125H66.625V129H70.625H74.625H78.625V125.004H82.625V129H86.625H90.625H94.625H98.625V125.004H102.625V129H106.625H110.625H114.625V125H110.625V121.004H106.625H102.625H98.625H94.625H90.625H86.625H82.625H78.625H74.625ZM66.625 129.004H62.625V133.004H58.625V137.004V141V141.004V145H62.625V141.004H66.625V137.004H70.625V141.004H74.625V145H78.625H82.625H86.625H90.625H94.625H98.625H102.625H106.625H110.625V141.004V141V137.004H114.625V141.004H118.625V145H122.625V141.004V141V137.004V133.004H118.625V129.004H114.625H110.625H106.625H102.625H98.625H94.625H90.625H86.625H82.625H78.625H74.625H70.625H66.625ZM82.625 137.004V133.004H86.625H90.625H94.625H98.625V137.004V141H94.625V137.004H90.625H86.625H82.625ZM94.625 145.004H98.625H102.625H106.625V149.004H102.625V153H98.625H94.625H90.625H86.625H82.625V149.004H78.625H74.625V145.004H78.625H82.625H86.625H90.625H94.625ZM94.625 153.004H90.625H86.625V157.004V161.004H82.625V165.004H86.625V161.004H90.625V157.004H94.625V153.004Z" fill="#04BA70"/>
<rect x="102.625" y="129" width="4" height="4" transform="rotate(180 102.625 129)" fill="white"/>
<rect x="82.625" y="129" width="4" height="4" transform="rotate(180 82.625 129)" fill="white"/>
<path fill-rule="evenodd" clip-rule="evenodd" d="M82.625 137H94.625V141H98.625V137V133H82.625V137Z" fill="white"/>
</g>
<g clip-path="url(#clip2_828_13325)">
<path fill-rule="evenodd" clip-rule="evenodd" d="M143.559 82.75H147.691H147.692H151.824H151.825H155.958V86.8828V86.8833V91.0156V91.0161V95.149H151.825H151.824H147.692H147.691H143.559H143.559H139.426V91.0161V91.0156V86.8833V86.8828V82.75H143.559H143.559ZM143.559 95.1504H147.691H147.692H151.825V99.2832V99.2837V103.416H155.958V107.547V107.549V111.68H151.825H151.824H147.692H147.691H143.559H143.559H139.426V107.549V107.547V103.417V103.416V99.2837V99.2832V95.1504H143.559H143.559ZM147.691 107.547V103.417H143.559V107.547H147.691ZM147.692 111.688H143.559V115.82V115.821V119.953V119.954V124.084V124.086V128.217H147.692V124.086V124.084V119.954V119.953V115.821V115.82V111.688ZM155.959 86.8833V91.0156V91.0161V95.149H160.09H160.092H164.223V91.0161V91.0156V86.8828H160.092V82.75H155.959V86.8828V86.8833ZM160.09 99.2832H155.959V103.416V103.417V107.547V107.549V111.68H160.092V107.549H164.223V103.416H164.223V99.2831H164.223V95.1504H160.09V99.2832ZM131.16 86.8833H131.16V82.75H135.291H135.293H139.424V86.8828V86.8833V91.0156V91.0161V95.149H135.293H135.291H131.16V91.0161V91.0156V86.8833ZM131.16 99.2831H135.293V103.416H135.293H139.424V107.547V107.549V111.68H135.293H135.291H131.16V107.549V107.547V103.416H131.16V99.2831ZM131.157 95.1504H127.024H127.023H122.891V99.2837H127.023V103.416V103.417V107.547H122.891V103.416H118.758H118.758H114.625V107.549H118.758H118.758H122.891V111.68H127.024V107.549H131.157V103.417V103.416V99.2837V99.2832V95.1504ZM155.958 119.953V115.821V115.82V111.688H151.824V115.82V115.821V119.953V119.954V124.084V124.086V128.217V128.217V132.35H155.958V128.217V128.217V124.086V124.084V119.954V119.953ZM155.959 124.084H160.09V119.953H164.223V124.084V124.086V128.217H160.092H160.09H155.959V124.084ZM164.227 119.953H168.36V124.086H164.227V119.953ZM127.023 86.8828H131.157V91.0156V91.0161V95.149H127.024H127.023H122.891V91.0156H127.023V86.8828ZM168.359 107.547H164.227V111.68H168.36V107.549H172.492H172.493H176.626V103.416H172.493H172.492H168.359V107.547ZM168.36 91.0156H164.227V95.149H168.36V91.0156ZM164.227 95.1504H168.36V99.2837H164.227V95.1504ZM135.291 111.688H139.424V115.82V115.821V119.953V119.954V124.084V124.086V128.217V128.217V132.35H135.291V128.217H131.16V124.084H135.291V119.954V119.953V115.821V115.82V111.688ZM131.157 119.953H127.024H127.023H122.891V124.086H127.023V128.217H131.157V124.086V124.084V119.953Z" fill="#FFC800"/>
<path fill-rule="evenodd" clip-rule="evenodd" d="M143.56 107.551H147.693V103.417H143.56V107.551ZM155.959 103.418H151.826V99.2852V99.2846V95.1518H155.958H155.959H160.092V99.2852H155.959V103.418Z" fill="white"/>
<path fill-rule="evenodd" clip-rule="evenodd" d="M139.424 103.42H135.291V99.2871H131.158V95.1538H135.291H135.292H139.424V99.2866V99.2871V103.42Z" fill="white"/>
</g>
<rect x="112.5" y="79" width="3" height="6" fill="#2C599D"/>
<rect x="117" y="80.5" width="3" height="6" transform="rotate(90 117 80.5)" fill="#2C599D"/>
<path fill-rule="evenodd" clip-rule="evenodd" d="M88.625 40.75C95.6666 40.75 101.375 35.0416 101.375 28C101.375 20.9584 95.6666 15.25 88.625 15.25C81.5834 15.25 75.875 20.9584 75.875 28C75.875 35.0416 81.5834 40.75 88.625 40.75ZM86.0531 33.0186L96.442 23.1019L94.9747 21.5648L85.3194 30.7811L82.2753 27.8754L80.808 29.4125L84.5858 33.0186L85.3194 33.7188L86.0531 33.0186Z" fill="#FE7435"/>
<rect x="38.625" y="59" width="4" height="8" fill="#FFC800"/>
<rect x="44.625" y="61" width="4" height="8" transform="rotate(90 44.625 61)" fill="#FFC800"/>
<rect x="145.625" y="53" width="4" height="8" fill="#FE7435"/>
<rect x="151.625" y="55" width="4" height="8" transform="rotate(90 151.625 55)" fill="#FE7435"/>
<defs>
<clipPath id="clip0_828_13325">
<rect width="64" height="64" fill="white" transform="translate(0.625 81)"/>
</clipPath>
<clipPath id="clip1_828_13325">
<rect width="64" height="64" fill="white" transform="translate(58.625 109)"/>
</clipPath>
<clipPath id="clip2_828_13325">
<rect width="62" height="62" fill="white" transform="translate(114.625 81)"/>
</clipPath>
</defs>
</svg>
