<svg width="109" height="110" viewBox="0 0 109 110" fill="none" xmlns="http://www.w3.org/2000/svg">
<rect y="0.799805" width="109" height="109" rx="4" fill="#151515"/>
<g clip-path="url(#clip0_2121_278105)">
<rect width="78" height="78" transform="translate(15 16.7998)" fill="#151515"/>
<path fill-rule="evenodd" clip-rule="evenodd" d="M87.8013 21.6748H93.0013V26.8731V26.8748V32.0676V32.0731V37.2676H87.8013V32.0731H82.6025V26.8731H87.8013V21.6748ZM77.4015 32.0676H82.6015V37.2676H77.4015V32.0676ZM46.2019 37.2715H51.4006H51.4019H56.6007V42.4715H51.4019H51.4006H46.2019V37.2715ZM51.4019 42.4744H56.6007V47.6736V47.6744V52.8736H51.4015H51.4006H46.2014V47.6736H46.2019V42.4744H51.4006H51.4019ZM56.6007 52.8765H51.4015H51.4006H46.2014V58.071V58.0765V63.271H51.4006H51.4015H56.6007V58.0765V58.071V52.8765ZM67.0004 63.2693V63.271V68.4685V68.4693V73.6685H61.8017H61.8004H56.6017V68.4693V68.4685V63.271V63.2693V58.0765V58.071V52.8765H61.8004H61.8017H67.0004V58.071V58.0765V63.2693ZM61.8004 73.676H56.6017V78.8752V78.8761V84.0753H61.8004H61.8017H67.0004V78.8761V78.8752V73.676H61.8017H61.8004ZM40.9983 47.6736H35.8021V52.8736H40.9983H41.0021H46.1983V47.6744V47.6736V42.4744H40.9983V47.6736ZM51.4015 68.4685H56.6007V73.6685H51.4015H51.4006H46.2014V68.4685H51.4006H51.4015ZM56.6007 73.676H51.4015H51.4006H46.2014V78.8761H46.2019V84.0753H51.4006H51.4019H56.6007V78.8761V78.8752V73.676ZM46.1983 52.8765H41.0021H40.9983H35.8034H35.8021H30.6034V58.071V58.0765V63.2693V63.271V68.4685V68.4693V73.6685H35.8021H35.8034H40.9983H41.0021H46.1983V68.4693V68.4685V63.271V63.2693V58.0765V58.071V52.8765ZM35.8034 73.676H40.9983H41.0021H46.1983V78.8752V78.8761V84.0753H41.0021H40.9983H35.8021V78.8761H30.6034V73.676H35.8021H35.8034ZM77.4015 37.2715H82.6015V42.4715H77.4015V37.2715ZM77.3979 37.2715H72.1979V42.4715H77.3979V37.2715ZM82.6025 37.2715H87.8026V42.4715H82.6025V37.2715ZM46.2019 32.0676H51.4019V37.2676H46.2019V32.0676ZM40.9983 32.0731V37.2676H46.1983V32.0731V32.0676V26.8731H41.0021V21.6748H35.8021V26.8731H30.6034V32.0676V32.0731V37.2676H35.8034V32.0731V32.0676V26.8748H40.9983V32.0676V32.0731ZM35.8021 37.2715H41.0021V42.4715H35.8021V37.2715ZM30.5998 73.676H25.3998V78.8761H30.5998V73.676ZM25.3998 58.071H30.5998V63.2693V63.271V68.4685V68.4693V73.6685H25.3998V68.4693V68.4685V63.271V63.2693V58.071ZM67.0004 42.4744H61.8017H61.8004H56.6017V47.6736V47.6744V52.8736H61.8004H61.8017H67.0004V47.6744V47.6736V42.4744ZM20.1987 68.4685H25.3988V73.6685H20.1987V68.4685ZM20.2 73.676H15V78.8752V78.8761V84.0753H20.1987V89.2689H25.3988V84.0689H20.2V78.8761V78.8752V73.676ZM30.5998 84.0689H25.3998V89.2689H30.5998V84.0689ZM72.1979 42.4744H67.0017V47.6736V47.6744V52.8736H72.1979H72.2017H77.3979V47.6744V47.6736V42.4744H72.2017H72.1979ZM67.0017 63.271V68.4685V68.4693V73.6685H72.1979H72.2017H77.3979V68.4685H72.2017V63.271H77.3979V58.0765V58.071V52.8765H72.2017H72.1979H67.0017V58.071V58.0765V63.2693V63.271ZM67.0017 73.676H72.1979H72.2017H77.3979V78.8752V78.8761V84.0753H72.2017H72.1979H67.0017V78.8761V78.8752V73.676ZM82.6013 47.6744H82.6015V42.4744H77.4015V47.6736H77.4013V52.8736H82.6013V47.6744ZM93.0013 63.271V63.2693V58.071H87.8026V52.8765H82.6025V58.071V58.0765V63.2693V63.271V68.4685V68.4693V73.6685H87.8013H87.8026H93.0013V68.4693V68.4685V63.271ZM82.6013 58.0765V63.271H77.4013V58.0765V58.071V52.8765H82.6013V58.071V58.0765ZM77.4013 73.676H82.6013V78.8761H77.4013V73.676ZM87.8026 73.676H82.6025V78.8761H87.8026V73.676ZM82.6025 47.6736H87.8026V52.8736H82.6025V47.6736Z" fill="white"/>
<path fill-rule="evenodd" clip-rule="evenodd" d="M72.2026 63.2764V68.4764H77.4027V63.2764H72.2026ZM77.406 68.4764V63.2764H82.606V68.4764H77.406ZM77.406 73.6849V68.4849H82.606V73.6849H77.406Z" fill="#151515"/>
<path fill-rule="evenodd" clip-rule="evenodd" d="M46.1973 63.2764V68.4764H51.396H51.3973H56.596V63.2764H51.3973H51.396H46.1973Z" fill="#151515"/>
<path fill-rule="evenodd" clip-rule="evenodd" d="M41.002 26.8691L35.8019 26.8691L35.8019 32.0674L35.8019 32.0692L35.8019 37.2674L41.002 37.2674L41.002 32.0692L41.002 32.0674L41.002 26.8691Z" fill="#151515"/>
<path fill-rule="evenodd" clip-rule="evenodd" d="M46.2007 37.2666L41.0007 37.2666L41.0007 39.8666L46.2007 39.8666L46.2007 37.2666ZM46.2007 39.8704L41.0007 39.8704L41.0007 42.4704L46.2007 42.4704L46.2007 39.8704Z" fill="#151515"/>
<path fill-rule="evenodd" clip-rule="evenodd" d="M87.8022 32.0723L82.6022 32.0723L82.6022 34.6714L82.6022 34.6723L82.6022 37.2714L87.8022 37.2714L87.8022 34.6723L87.8022 34.6714L87.8022 32.0723Z" fill="#151515"/>
</g>
<defs>
<clipPath id="clip0_2121_278105">
<rect width="78" height="78" fill="white" transform="translate(15 16.7998)"/>
</clipPath>
</defs>
</svg>
