<svg width="81" height="80" viewBox="0 0 81 80" fill="none" xmlns="http://www.w3.org/2000/svg">
<rect x="1" y="0.5" width="79" height="79" rx="1.5" fill="white"/>
<rect x="1" y="0.5" width="79" height="79" rx="1.5" stroke="#EBEBEB"/>
<g clip-path="url(#clip0_2121_247629)">
<rect width="60" height="60" transform="translate(10.5 10)" fill="white"/>
<path fill-rule="evenodd" clip-rule="evenodd" d="M29.2542 15.6367H25.5062H25.5059H21.7601H21.7578H18.0117V19.3828V19.3851V23.1312H21.7578H21.7601H25.5059H25.5062H29.2542V19.3851V19.3828V15.6367ZM25.5062 23.1367H29.2542V26.8828V26.8851V30.6289V30.6312V34.3772H25.5062H25.5059H21.7578V30.6312H18.0117V26.8851V26.8828V23.1367H21.7578H21.7601H25.5059H25.5062ZM25.5062 34.3789H29.2542V38.1272H25.5062H25.5059H21.7601V41.8711H25.5059H25.5062H29.2542V45.6194H25.5062H25.5059H21.7601H21.7578H18.0117V41.8733V41.8711V38.1272V38.125V34.3789H21.7578H21.7601H25.5059H25.5062ZM33.0039 45.625H29.2559V49.3711V49.3733V53.1191V53.1194V56.8675H33.0039H33.0042H36.752H36.7522H40.5H40.5003H44.2483V53.1194V53.1191V49.3733V49.3711V45.625H40.5003H40.5H36.7522H36.752H33.0042H33.0039ZM33.0039 56.8691H29.2559V60.6175H33.0039H33.0042H36.752H36.7522H40.5H40.5003H44.2483V56.8691H40.5003H40.5H36.7522H36.752H33.0042H33.0039ZM25.5062 60.6191H29.2542V64.3675H25.5062H25.5059H21.7578V60.6191H25.5059H25.5062ZM33.0039 60.6191H36.752H36.7522H40.5H40.5003H44.2483V64.3675H40.5003H40.5H36.7522H36.752H33.0039V60.6191ZM33.0039 34.3772H36.752H36.7522H40.5H40.5003H44.2483V30.6312V30.6289V26.8851V26.8828V23.1367H40.5003H40.5H36.7522H36.752H33.0042H33.0039H29.2559V26.8828V26.8851V30.6312H33.0039V34.3772ZM36.7522 19.3828H40.5003V23.1312H36.7522H36.752H33.0042H33.0039H29.2559V19.3851V19.3828V15.6367H33.0039H33.0042H36.7522V19.3828ZM40.5 34.3789H36.7522H36.752H33.0042H33.0039H29.2559V38.125V38.1272V41.8711V41.8733V45.6194H33.0039H33.0042H36.752H36.7522H40.5H40.5003H44.2483V41.8711H40.5003V38.1272H44.2483V34.3789H40.5003H40.5ZM44.25 45.625H47.9961H47.9983H51.7444V49.3711V49.3733V53.1191V53.1194V56.8675H47.9983H47.9961H44.25V53.1194V53.1191V49.3733V49.3711V45.625ZM55.4944 49.3711H51.7461V53.1191V53.1194V56.8675H55.4941H55.4944H59.2422H59.2425H62.9905V53.1194H66.7366V49.3733V49.3711V45.625H62.9883V49.3711V49.3733V53.1191H59.2425H59.2422H55.4944V49.3711ZM44.25 60.6191H47.9961H47.9983H51.7444V64.3675H47.9983H47.9961H44.25V60.6191ZM55.4941 56.8691H51.7461V60.6175H55.4941H55.4944H59.2425V56.8691H55.4944H55.4941ZM44.25 56.8691H47.9961H47.9983H51.7444V60.6175H47.9983H47.9961H44.25V56.8691ZM59.2422 38.125H62.9883H62.9905H66.7366V41.8711V41.8733V45.6194H62.9883V41.8733H59.2422V38.125ZM66.7366 30.6289H62.9905V26.8828H59.2422V30.6289V30.6312V34.3772H62.9883H62.9905H66.7366V30.6289ZM70.4866 53.1194V49.3733V49.3711V45.625H66.7383V49.3711V49.3733V53.1194H70.4866ZM66.7383 41.8711H70.4866V45.6194H66.7383V41.8711ZM18.0101 23.1367H14.262H14.2617H10.5137V26.8828V26.8851V30.6289V30.6312V34.3772H14.2617H14.262H18.0101V30.6312V30.6289V26.8851V26.8828V23.1367ZM14.2617 19.3828H18.0101V23.1312H14.2617V19.3828ZM18.0101 34.3789H14.262H14.2617H10.5137V38.1272H14.2617V41.8733H18.0101V38.1272V38.125V34.3789ZM29.2542 45.625H25.5059V49.3711V49.3733V53.1191V53.1194V56.8675H29.2542V53.1194V53.1191V49.3733V49.3711V45.625Z" fill="#FE7435"/>
<rect x="18.0117" y="30.6289" width="3.74834" height="3.74834" fill="white"/>
<rect x="29.2559" y="30.6289" width="3.74834" height="3.74834" fill="white"/>
<rect x="21.7578" y="38.1289" width="7.49668" height="3.74834" fill="white"/>
</g>
<defs>
<clipPath id="clip0_2121_247629">
<rect width="60" height="60" fill="white" transform="translate(10.5 10)"/>
</clipPath>
</defs>
</svg>
