<svg width="81" height="80" viewBox="0 0 81 80" fill="none" xmlns="http://www.w3.org/2000/svg">
<rect x="1.125" y="0.5" width="79" height="79" rx="1.5" fill="white"/>
<rect x="1.125" y="0.5" width="79" height="79" rx="1.5" stroke="#EBEBEB"/>
<g clip-path="url(#clip0_2121_219451)">
<rect width="60" height="60" transform="translate(10.625 10)" fill="white"/>
<path fill-rule="evenodd" clip-rule="evenodd" d="M29.3792 15.6367H25.6312H25.6309H21.8851H21.8828H18.1367V19.3828V19.3851V23.1312H21.8828H21.8851H25.6309H25.6312H29.3792V19.3851V19.3828V15.6367ZM25.6312 23.1367H29.3792V26.8828V26.8851V30.6289V30.6312V34.3772H25.6312H25.6309H21.8828V30.6312H18.1367V26.8851V26.8828V23.1367H21.8828H21.8851H25.6309H25.6312ZM25.6312 34.3789H29.3792V38.1272H25.6312H25.6309H21.8851V41.8711H25.6309H25.6312H29.3792V45.6194H25.6312H25.6309H21.8851H21.8828H18.1367V41.8733V41.8711V38.1272V38.125V34.3789H21.8828H21.8851H25.6309H25.6312ZM33.1289 45.625H29.3809V49.3711V49.3733V53.1191V53.1194V56.8675H33.1289H33.1292H36.877H36.8772H40.625H40.6253H44.3733V53.1194V53.1191V49.3733V49.3711V45.625H40.6253H40.625H36.8772H36.877H33.1292H33.1289ZM33.1289 56.8691H29.3809V60.6175H33.1289H33.1292H36.877H36.8772H40.625H40.6253H44.3733V56.8691H40.6253H40.625H36.8772H36.877H33.1292H33.1289ZM25.6312 60.6191H29.3792V64.3675H25.6312H25.6309H21.8828V60.6191H25.6309H25.6312ZM33.1289 60.6191H36.877H36.8772H40.625H40.6253H44.3733V64.3675H40.6253H40.625H36.8772H36.877H33.1289V60.6191ZM33.1289 34.3772H36.877H36.8772H40.625H40.6253H44.3733V30.6312V30.6289V26.8851V26.8828V23.1367H40.6253H40.625H36.8772H36.877H33.1292H33.1289H29.3809V26.8828V26.8851V30.6312H33.1289V34.3772ZM36.8772 19.3828H40.6253V23.1312H36.8772H36.877H33.1292H33.1289H29.3809V19.3851V19.3828V15.6367H33.1289H33.1292H36.8772V19.3828ZM40.625 34.3789H36.8772H36.877H33.1292H33.1289H29.3809V38.125V38.1272V41.8711V41.8733V45.6194H33.1289H33.1292H36.877H36.8772H40.625H40.6253H44.3733V41.8711H40.6253V38.1272H44.3733V34.3789H40.6253H40.625ZM44.375 45.625H48.1211H48.1233H51.8694V49.3711V49.3733V53.1191V53.1194V56.8675H48.1233H48.1211H44.375V53.1194V53.1191V49.3733V49.3711V45.625ZM55.6194 49.3711H51.8711V53.1191V53.1194V56.8675H55.6191H55.6194H59.3672H59.3675H63.1155V53.1194H66.8616V49.3733V49.3711V45.625H63.1133V49.3711V49.3733V53.1191H59.3675H59.3672H55.6194V49.3711ZM44.375 60.6191H48.1211H48.1233H51.8694V64.3675H48.1233H48.1211H44.375V60.6191ZM55.6191 56.8691H51.8711V60.6175H55.6191H55.6194H59.3675V56.8691H55.6194H55.6191ZM44.375 56.8691H48.1211H48.1233H51.8694V60.6175H48.1233H48.1211H44.375V56.8691ZM59.3672 38.125H63.1133H63.1155H66.8616V41.8711V41.8733V45.6194H63.1133V41.8733H59.3672V38.125ZM66.8616 30.6289H63.1155V26.8828H59.3672V30.6289V30.6312V34.3772H63.1133H63.1155H66.8616V30.6289ZM70.6116 53.1194V49.3733V49.3711V45.625H66.8633V49.3711V49.3733V53.1194H70.6116ZM66.8633 41.8711H70.6116V45.6194H66.8633V41.8711ZM18.1351 23.1367H14.387H14.3867H10.6387V26.8828V26.8851V30.6289V30.6312V34.3772H14.3867H14.387H18.1351V30.6312V30.6289V26.8851V26.8828V23.1367ZM14.3867 19.3828H18.1351V23.1312H14.3867V19.3828ZM18.1351 34.3789H14.387H14.3867H10.6387V38.1272H14.3867V41.8733H18.1351V38.1272V38.125V34.3789ZM29.3792 45.625H25.6309V49.3711V49.3733V53.1191V53.1194V56.8675H29.3792V53.1194V53.1191V49.3733V49.3711V45.625Z" fill="#FE7435"/>
<rect x="18.1367" y="30.6289" width="3.74834" height="3.74834" fill="white"/>
<rect x="29.3809" y="30.6289" width="3.74834" height="3.74834" fill="white"/>
<rect x="21.8828" y="38.1289" width="7.49668" height="3.74834" fill="white"/>
</g>
<defs>
<clipPath id="clip0_2121_219451">
<rect width="60" height="60" fill="white" transform="translate(10.625 10)"/>
</clipPath>
</defs>
</svg>
