<svg width="49" height="48" viewBox="0 0 49 48" fill="none" xmlns="http://www.w3.org/2000/svg">
<rect x="0.75" width="48" height="48" fill="#DDDDDD"/>
<g clip-path="url(#clip0_2114_199781)">
<rect width="48" height="48" transform="translate(0.75)" fill="white"/>
<path fill-rule="evenodd" clip-rule="evenodd" d="M15.7531 4.50781H12.7545H12.7544H9.75648H9.75586H6.75781V7.50391V7.50649V10.5026H9.75586H9.75648H12.7544H12.7545H15.7531V7.50649V7.50391V4.50781ZM12.7545 10.5078H15.7531V13.5039V13.5065V16.502V16.5026V19.5006H12.7545H12.7544H9.75586V16.5026H6.75781V13.5065V13.5039V10.5078H9.75586H9.75648H12.7544H12.7545ZM12.7545 19.502H15.7531V22.5006H12.7545H12.7544H9.75648V25.4961H12.7544H12.7545H15.7531V28.4948H12.7545H12.7544H9.75648H9.75586H6.75781V25.4987V25.4961V22.5006V22.5V19.502H9.75586H9.75648H12.7544H12.7545ZM18.752 28.5H15.7539V31.4961V31.4987V34.4922V34.4948V37.4909H18.752H18.7526H21.7506V34.4948V34.4922V31.4987V31.4961V28.5H18.7526H18.752ZM18.752 37.4922H15.7539V40.4909H18.752H18.7526H21.7506V37.4922H18.7526H18.752ZM12.7545 40.4922H15.7531V43.4909H12.7545H12.7544H9.75586V40.4922H12.7544H12.7545ZM18.752 40.4922H21.7506V43.4909H18.752V40.4922ZM21.751 13.5065V16.502V16.5026V19.5006H24.749H24.7496H27.7477V16.5026V16.502V13.5065V13.5039V10.5078H24.7496H24.749H21.751V13.5039V13.5065ZM21.751 7.50391H24.7496V10.5026H21.751V7.50391ZM24.749 19.502H21.751V22.5V22.5006V25.4961V25.4987V28.4948H24.749H24.7496H27.7477V25.4961H24.7496V22.5006H27.7477V19.502H24.7496H24.749ZM27.7477 28.5H24.7496H24.749H21.751V31.4961V31.4987V34.4922V34.4948V37.4909H24.749H24.7496H27.7477V34.4948V34.4922V31.4987V31.4961V28.5ZM27.748 28.5H30.7467V31.4961V31.4987V34.4922V34.4948V37.4909H27.748V34.4948V34.4922V31.4987V31.4961V28.5ZM33.7457 28.5H30.7471V31.4961V31.4987V34.4922V34.4948V37.4909H33.7456H33.7457H36.7441H36.7443H39.7427H39.7428H42.7413V34.4948H45.7399V31.4987V31.4961V28.5H42.7412V31.4961V31.4987V34.4922H39.7428H39.7427H36.7443V31.4961H33.7457V28.5ZM24.7496 37.4922H27.7477V40.4909H24.7496H24.749H21.751V37.4922H24.749H24.7496ZM27.748 40.4922H30.7467V43.4909H27.748V40.4922ZM36.7441 37.4922H33.7457H33.7456H30.7471V40.4909H33.7456H33.7457H36.7441H36.7443H39.7428V37.4922H36.7443H36.7441ZM27.748 37.4922H30.7467V40.4909H27.748V37.4922ZM39.7427 22.5H42.7412H42.7413H45.7399V25.4961V25.4987V28.4948H42.7412V25.4987H39.7427V22.5ZM45.7399 16.502H42.7413V13.5039H39.7427V16.502V16.5026V19.5006H42.7412H42.7413H45.7399V16.502ZM48.7389 34.4948V31.4987V31.4961V28.5H45.7402V31.4961V31.4987V34.4948H48.7389ZM45.7402 25.4961H48.7389V28.4948H45.7402V25.4961ZM33.7457 40.4922H30.7471V43.4909H33.7457V40.4922ZM6.75746 10.5078H3.75893H3.75879H0.760254V13.5039V13.5065V16.502V16.5026V19.5006H3.75879H3.75893H6.75746V16.5026V16.502V13.5065V13.5039V10.5078ZM3.75879 7.50391H6.75746V10.5026H3.75879V7.50391ZM6.75746 19.502H3.75893H3.75879H0.760254V22.5006H3.75879V25.4987H6.75746V22.5006V22.5V19.502ZM15.7531 28.5H12.7544V31.4961V31.4987V34.4922V34.4948V37.4909H15.7531V34.4948V34.4922V31.4987V31.4961V28.5ZM18.752 4.50781H15.7539V7.50391V7.50649V10.5026H18.752H18.7526H21.7506V7.50649V7.50391V4.50781H18.7526H18.752ZM18.7526 10.5078H21.7506V13.5039V13.5065V16.502V16.5026V19.5006H18.752V16.5026H15.7539V13.5065V13.5039V10.5078H18.752H18.7526ZM21.7506 19.502H18.7526H18.752H15.7539V22.5V22.5006V25.4961V25.4987V28.4948H18.752H18.7526H21.7506V25.4987V25.4961V22.5006V22.5V19.502ZM24.7496 40.4922H27.7477V43.4909H24.7496H24.749H21.751V40.4922H24.749H24.7496Z" fill="#FE7435"/>
<rect x="6.75781" y="16.502" width="2.99867" height="2.99867" fill="white"/>
<rect x="15.7539" y="16.502" width="2.99867" height="2.99867" fill="white"/>
<rect x="9.75586" y="22.502" width="5.99735" height="2.99867" fill="white"/>
</g>
<defs>
<clipPath id="clip0_2114_199781">
<rect width="48" height="48" fill="white" transform="translate(0.75)"/>
</clipPath>
</defs>
</svg>
