<svg width="109" height="110" viewBox="0 0 109 110" fill="none" xmlns="http://www.w3.org/2000/svg">
<rect y="0.799805" width="109" height="109" rx="4" fill="#151515"/>
<g clip-path="url(#clip0_2121_277729)">
<path fill-rule="evenodd" clip-rule="evenodd" d="M84.7902 27.5723H89.9234V32.7055H84.7902V27.5723ZM38.5983 32.7073H33.4651V37.8323V37.8405V42.9655H38.5983V37.8405V37.8323V32.7073ZM38.6001 37.8323H43.7328H43.7333H48.866V42.9655H43.7333H43.7328H38.6001V37.8323ZM28.3351 42.9723H33.4651H33.4683H38.5983V48.1023V48.1055V53.2355H33.4683H33.4651H28.3351V48.1055V48.1023V42.9723ZM28.3351 58.3705V63.4973V63.5005V68.6305H33.4651H33.4683H38.5983V63.5005V63.4973V58.3705V58.3673V53.2373H33.4683H33.4651H28.3358H28.3351H23.2026V58.3705H28.3351ZM23.2026 68.6373H28.3358V73.7705H23.2026V68.6373ZM23.2008 73.7723H18.0676V78.8973H12.9351V84.0305H18.0682V78.9055H23.2008V73.7723ZM28.3358 73.7723H23.2026V78.9055H28.3358V73.7723ZM38.5983 73.7723H33.4651V78.9055H38.5983V73.7723ZM33.4651 68.6373H38.5983V73.7705H33.4651V68.6373ZM43.7326 73.7723H38.6001V78.9055H43.7326H43.7333H48.8651H48.8658H53.9951H53.9983H59.1283V73.7723H53.9983H53.9951H48.8658H48.8651H43.7333H43.7326ZM38.6001 68.6305V63.5005V63.4973V58.3673H43.7326H43.7333H48.8651V53.2373H53.9951H53.9983H59.1283V58.3673V58.3705V63.4973V63.5005V68.6305H53.9983H53.9951H48.866H48.8651H43.7333H43.7328H38.6001ZM43.7328 68.6373H38.6001V73.7705H43.7328H43.7333H48.8651H48.866H53.9951H53.9983H59.1283V68.6373H53.9983H53.9951H48.866H48.8651H43.7333H43.7328ZM38.6001 42.9723H43.7328H43.7333H48.8651H48.866H53.9951H53.9983H59.1283V48.1023V48.1055V53.2355H53.9983H53.9951H48.866H48.8651H43.7328V48.1055H38.6001V42.9723ZM64.2601 73.7723H59.1301V78.9055H64.2601H64.2633H69.3933V73.7723H64.2633H64.2601ZM64.2633 48.1055V53.2355H59.1301V48.1055V48.1023V42.9723H64.2601H64.2633H69.3933V48.1055H64.2633ZM69.3933 68.6305V63.5005V63.4973V58.3673H64.2633H64.2601H59.1301V63.4973V63.5005V68.6305H64.2601H64.2633H69.3933ZM64.2601 68.6373H59.1301V73.7705H64.2601H64.2633H69.3933V68.6373H64.2633H64.2601ZM64.2601 37.8323H59.1301V42.9655H64.2601H64.2633H69.3933V37.8323H64.2633H64.2601ZM69.3951 73.7723H74.5283V78.9055H69.3951V73.7723ZM69.3951 48.1055V53.2355H74.5276H74.5283H79.6608V48.1055V48.1023V42.9723H74.5283H74.5276H69.3951V48.1023V48.1055ZM69.3951 63.5005V63.4973V58.3705V58.3673V53.2373H74.5276H74.5283H79.6602H79.6608H84.7934V58.3705H79.6608V63.4973V63.5005V68.6305H74.5283H74.5276H69.3951V63.5005ZM74.5283 68.6373H69.3951V73.7705H74.5283V68.6373ZM79.6602 68.6373H84.7934V73.7705H79.6602V68.6373ZM89.9234 73.7723H84.7934H84.7902H79.6602V78.9055H84.7902H84.7934H89.9234V73.7723ZM89.9277 78.8973H95.0609V84.0305H89.9277V78.8973ZM69.3951 42.9655V37.8405V37.8323V32.7073H74.5283V37.8323V37.8405V42.9655H69.3951ZM84.7902 48.1023H89.9234V53.2355H84.7902V48.1023ZM23.2008 53.2355H18.0682H18.0676H12.9351V48.1055V48.1023V42.9723H18.0682V48.1023H23.2008V53.2355ZM89.9277 42.9723H95.0609V48.1023V48.1055V53.2355H89.9277V48.1055V48.1023V42.9723ZM89.9234 42.9655V37.8405V37.8323V32.7073H84.7902V37.8323V37.8405V42.9655H89.9234ZM12.9351 32.7073H18.0676H18.0682H23.2008V37.8373V37.8405V42.9705H18.0676V37.8405H12.9351V32.7073ZM95.0609 32.7073H89.9277V37.8405H95.0609V32.7073ZM89.9277 27.5723H95.0609V32.7055H89.9277V27.5723ZM12.9352 27.5723H18.0676H18.0684H23.2008V32.7055H18.0684H18.0676H12.9352V27.5723Z" fill="#2C599D"/>
<path fill-rule="evenodd" clip-rule="evenodd" d="M38.6026 48.1074H43.7358V53.2406H38.6026V48.1074ZM38.6025 53.2423H43.735H43.7357H48.8682V58.3755H43.7357H43.735H38.6025V53.2423Z" fill="#151515"/>
<path fill-rule="evenodd" clip-rule="evenodd" d="M69.3956 48.1074H64.2624V53.2406H69.3956V48.1074ZM59.1299 53.2424H64.2624H64.2631H69.3956V58.3756H64.2631H64.2624H59.1299V53.2424Z" fill="#151515"/>
</g>
<defs>
<clipPath id="clip0_2121_277729">
<rect width="82" height="82" fill="white" transform="translate(13 14.7998)"/>
</clipPath>
</defs>
</svg>
