<svg width="81" height="80" viewBox="0 0 81 80" fill="none" xmlns="http://www.w3.org/2000/svg">
<rect x="1.125" y="0.5" width="79" height="79" rx="1.5" fill="white"/>
<rect x="1.125" y="0.5" width="79" height="79" rx="1.5" stroke="#EBEBEB"/>
<g clip-path="url(#clip0_2121_219459)">
<rect width="62" height="62" transform="translate(9.625 9)" fill="white"/>
<path fill-rule="evenodd" clip-rule="evenodd" d="M38.5591 16.75H42.6914H42.6919H46.8242H46.8247H50.9576V20.8828V20.8833V25.0156V25.0161V29.149H46.8247H46.8242H42.6919H42.6914H38.5591H38.5586H34.4258V25.0161V25.0156V20.8833V20.8828V16.75H38.5586H38.5591ZM38.5591 29.1504H42.6914H42.6919H46.8247V33.2832V33.2837V37.416H50.9576V41.5469V41.5494V45.6802H46.8247H46.8242H42.6919H42.6914H38.5591H38.5586H34.4258V41.5494V41.5469V37.4165V37.416V33.2837V33.2832V29.1504H38.5586H38.5591ZM42.6914 41.5469V37.4165H38.5591V41.5469H42.6914ZM42.6919 45.6875H38.5586V49.8203V49.8208V53.9531V53.9536V58.084V58.0865V62.2173H42.6919V58.0865V58.084V53.9536V53.9531V49.8208V49.8203V45.6875ZM50.959 20.8833V25.0156V25.0161V29.149H55.0898H55.0923H59.2232V25.0161V25.0156V20.8828H55.0923V16.75H50.959V20.8828V20.8833ZM55.0898 33.2832H50.959V37.416V37.4165V41.5469V41.5494V45.6802H55.0923V41.5494H59.2232V37.4164H59.2234V33.2831H59.2232V29.1504H55.0898V33.2832ZM26.1602 20.8833H26.16V16.75H30.291H30.2933H34.4244V20.8828V20.8833V25.0156V25.0161V29.149H30.2935H30.291H26.1602V25.0161V25.0156V20.8833ZM26.16 33.2831H30.2933V37.416H30.2935H34.4244V41.5469V41.5494V45.6802H30.2935H30.291H26.1602V41.5494V41.5469V37.4164H26.16V33.2831ZM26.1568 29.1504H22.024H22.0234H17.8906V33.2837H22.0234V37.416V37.4165V41.5469H17.8911V37.416H13.7583H13.7578H9.625V41.5494H13.7578H13.7583H17.8906V45.6802H22.024V41.5494H26.1568V37.4165V37.416V33.2837V33.2832V29.1504ZM50.9576 53.9531V49.8208V49.8203V45.6875H46.8242V49.8203V49.8208V53.9531V53.9536V58.084V58.0865V62.2168V62.2173V66.3501H50.9576V62.2173V62.2168V58.0865V58.084V53.9536V53.9531ZM50.959 58.084H55.0898V53.9531H59.2232V58.084V58.0865V62.2173H55.0923H55.0898H50.959V58.084ZM59.2266 53.9531H63.3599V58.0865H59.2266V53.9531ZM22.0234 20.8828H26.1568V25.0156V25.0161V29.149H22.024H22.0234H17.8906V25.0156H22.0234V20.8828ZM63.3594 41.5469H59.2266V45.6802H63.3599V41.5494H67.4922H67.4927H71.6255V37.416H67.4927H67.4922H63.3594V41.5469ZM63.3599 25.0156H59.2266V29.149H63.3599V25.0156ZM59.2266 29.1504H63.3599V33.2837H59.2266V29.1504ZM30.291 45.6875H34.4244V49.8203V49.8208V53.9531V53.9536V58.084V58.0865V62.2168V62.2173V66.3501H30.291V62.2173H26.1602V58.084H30.291V53.9536V53.9531V49.8208V49.8203V45.6875ZM26.1568 53.9531H22.024H22.0234H17.8906V58.0865H22.0234V62.2173H26.1568V58.0865V58.084V53.9531Z" fill="#FFC800"/>
<path fill-rule="evenodd" clip-rule="evenodd" d="M38.56 41.5508H42.6934V37.4174H38.56V41.5508ZM50.959 37.418H46.8257V33.2852V33.2846V29.1518H50.9585H50.959H55.0918V33.2852H50.959V37.418Z" fill="white"/>
<path fill-rule="evenodd" clip-rule="evenodd" d="M34.4243 37.4199H30.291V33.2871H26.1582V29.1538H30.291H30.2915H34.4243V33.2866V33.2871V37.4199Z" fill="white"/>
</g>
<defs>
<clipPath id="clip0_2121_219459">
<rect width="62" height="62" fill="white" transform="translate(9.625 9)"/>
</clipPath>
</defs>
</svg>
