<svg width="81" height="80" viewBox="0 0 81 80" fill="none" xmlns="http://www.w3.org/2000/svg">
<rect x="1" y="0.5" width="79" height="79" rx="1.5" fill="white"/>
<rect x="1" y="0.5" width="79" height="79" rx="1.5" stroke="#EBEBEB"/>
<g clip-path="url(#clip0_2121_248191)">
<rect width="62" height="62" transform="translate(9.5 9)" fill="white"/>
<path fill-rule="evenodd" clip-rule="evenodd" d="M38.4341 16.75H42.5664H42.5669H46.6992H46.6997H50.8326V20.8828V20.8833V25.0156V25.0161V29.149H46.6997H46.6992H42.5669H42.5664H38.4341H38.4336H34.3008V25.0161V25.0156V20.8833V20.8828V16.75H38.4336H38.4341ZM38.4341 29.1504H42.5664H42.5669H46.6997V33.2832V33.2837V37.416H50.8326V41.5469V41.5494V45.6802H46.6997H46.6992H42.5669H42.5664H38.4341H38.4336H34.3008V41.5494V41.5469V37.4165V37.416V33.2837V33.2832V29.1504H38.4336H38.4341ZM42.5664 41.5469V37.4165H38.4341V41.5469H42.5664ZM42.5669 45.6875H38.4336V49.8203V49.8208V53.9531V53.9536V58.084V58.0865V62.2173H42.5669V58.0865V58.084V53.9536V53.9531V49.8208V49.8203V45.6875ZM50.834 20.8833V25.0156V25.0161V29.149H54.9648H54.9673H59.0982V25.0161V25.0156V20.8828H54.9673V16.75H50.834V20.8828V20.8833ZM54.9648 33.2832H50.834V37.416V37.4165V41.5469V41.5494V45.6802H54.9673V41.5494H59.0982V37.4164H59.0984V33.2831H59.0982V29.1504H54.9648V33.2832ZM26.0352 20.8833H26.035V16.75H30.166H30.1683H34.2994V20.8828V20.8833V25.0156V25.0161V29.149H30.1685H30.166H26.0352V25.0161V25.0156V20.8833ZM26.035 33.2831H30.1683V37.416H30.1685H34.2994V41.5469V41.5494V45.6802H30.1685H30.166H26.0352V41.5494V41.5469V37.4164H26.035V33.2831ZM26.0318 29.1504H21.899H21.8984H17.7656V33.2837H21.8984V37.416V37.4165V41.5469H17.7661V37.416H13.6333H13.6328H9.5V41.5494H13.6328H13.6333H17.7656V45.6802H21.899V41.5494H26.0318V37.4165V37.416V33.2837V33.2832V29.1504ZM50.8326 53.9531V49.8208V49.8203V45.6875H46.6992V49.8203V49.8208V53.9531V53.9536V58.084V58.0865V62.2168V62.2173V66.3501H50.8326V62.2173V62.2168V58.0865V58.084V53.9536V53.9531ZM50.834 58.084H54.9648V53.9531H59.0982V58.084V58.0865V62.2173H54.9673H54.9648H50.834V58.084ZM59.1016 53.9531H63.2349V58.0865H59.1016V53.9531ZM21.8984 20.8828H26.0318V25.0156V25.0161V29.149H21.899H21.8984H17.7656V25.0156H21.8984V20.8828ZM63.2344 41.5469H59.1016V45.6802H63.2349V41.5494H67.3672H67.3677H71.5005V37.416H67.3677H67.3672H63.2344V41.5469ZM63.2349 25.0156H59.1016V29.149H63.2349V25.0156ZM59.1016 29.1504H63.2349V33.2837H59.1016V29.1504ZM30.166 45.6875H34.2994V49.8203V49.8208V53.9531V53.9536V58.084V58.0865V62.2168V62.2173V66.3501H30.166V62.2173H26.0352V58.084H30.166V53.9536V53.9531V49.8208V49.8203V45.6875ZM26.0318 53.9531H21.899H21.8984H17.7656V58.0865H21.8984V62.2173H26.0318V58.0865V58.084V53.9531Z" fill="#FFC800"/>
<path fill-rule="evenodd" clip-rule="evenodd" d="M38.435 41.5508H42.5684V37.4174H38.435V41.5508ZM50.834 37.418H46.7007V33.2852V33.2846V29.1518H50.8335H50.834H54.9668V33.2852H50.834V37.418Z" fill="white"/>
<path fill-rule="evenodd" clip-rule="evenodd" d="M34.2993 37.4199H30.166V33.2871H26.0332V29.1538H30.166H30.1665H34.2993V33.2866V33.2871V37.4199Z" fill="white"/>
</g>
<defs>
<clipPath id="clip0_2121_248191">
<rect width="62" height="62" fill="white" transform="translate(9.5 9)"/>
</clipPath>
</defs>
</svg>
