<svg width="49" height="48" viewBox="0 0 49 48" fill="none" xmlns="http://www.w3.org/2000/svg">
<rect x="0.75" width="48" height="48" fill="#DDDDDD"/>
<g clip-path="url(#clip0_2114_199782)">
<rect width="48" height="48" transform="translate(0.75)" fill="white"/>
<path fill-rule="evenodd" clip-rule="evenodd" d="M23.1504 6H26.3496H26.3504H29.5496V9.19922V9.2V12.3984V12.3992V15.5984H26.3504H26.3496H23.1504V12.3992V12.3984V9.2V9.19922V6ZM23.1504 15.6016H26.3496H26.3504H29.5496V18.8008V18.8016V22V22.0008V25.1992V25.2V28.3992H26.3504H26.3496H23.1504V25.1992H26.3496V22.0008H23.1504V18.8016V18.8008V15.6016ZM26.3504 28.4023H23.1504V31.6016V31.6023V34.8008V34.8016V38V38.0008V41.2H26.3504V38.0008V38V34.8016V34.8008V31.6023V31.6016V28.4023ZM32.75 9.2V12.3984V12.3992V15.5984H35.95V12.3992V12.3984V9.2V9.19922V6H32.75V9.19922V9.2ZM35.95 18.8008H32.75V22V22.0008V25.1992V25.2V28.3992H35.95V25.2V25.1992V22.0008V22V18.8008ZM16.7498 12.3984V9.2V9.19922V6H13.5498V9.19922V9.2V12.3984V12.3992V15.5984H16.7498V12.3992V12.3984ZM13.5498 18.8008H16.7498V22V22.0008V25.1992V25.2V28.3992H13.5498V25.2V25.1992V22.0008V22V18.8008ZM23.1502 15.6016H19.9502V18.8008V18.8016V22V22.0008V25.1992V25.2V28.3992H23.1502V25.2V25.1992V22.0008V22V18.8016V18.8008V15.6016ZM23.1502 9.2V12.3984V12.3992V15.5984H19.9502V12.3992V12.3984V9.2V9.19922V6H23.1502V9.19922V9.2ZM32.7498 9.2V12.3984V12.3992V15.5984H29.5498V12.3992V12.3984V9.2V9.19922V6H32.7498V9.19922V9.2ZM13.5496 15.6016H10.3504H10.3496H7.15039V18.8016H10.3496V22V22.0008V25.1992H7.15039V28.3992H10.3504V25.2H13.5496V22.0008V22V18.8016V18.8008V15.6016ZM32.7498 22H29.5498V25.1992V25.2V28.3992H32.7498V25.2V25.1992V22ZM32.7498 34.8008V31.6023V31.6016V28.4023H29.5498V31.6016V31.6023V34.8008V34.8016V38V38.0008V41.1992V41.2V44.3992H32.7498V41.2V41.1992V38.0008V38V34.8016V34.8008ZM32.75 38H35.95V41.2H32.75V38ZM35.9502 34.8008H39.1502V38V38.0008V41.2H35.9502V38.0008V38V34.8008ZM39.1504 34.8008H42.3504V38.0008H39.1504V34.8008ZM10.3496 9.19922H13.5496V12.3984V12.3992V15.5984H10.3504H10.3496H7.15039V12.3984H10.3496V9.19922ZM39.1502 15.6016H35.9502V18.8008V18.8016V22V22.0008V25.2H39.1502V22.0008V22V18.8016V18.8008V15.6016ZM35.9502 9.19922H39.1502V12.3984V12.3992V15.5984H35.9502V12.3992V12.3984V9.19922ZM42.3496 25.1992H39.1504V28.3992H42.3504V25.2H45.5496V22H42.3496V25.1992ZM0.75 22H3.95V25.2H0.75V22ZM48.7498 22H45.5498V25.2H48.7498V22ZM3.9502 22H7.1502V25.2H3.9502V22ZM42.3504 12.3984H39.1504V15.5984H42.3504V12.3984ZM39.1504 15.6016H42.3504V18.8016H39.1504V15.6016ZM16.75 9.2V12.3984V12.3992V15.5984H19.95V12.3992V12.3984V9.2V9.19922V6H16.75V9.19922V9.2ZM16.75 22H19.95V25.1992V25.2V28.3992H16.75V25.2V25.1992V22ZM16.75 28.4023H19.95V31.6016V31.6023V34.8008V34.8016V38V38.0008V41.1992V41.2V44.3992H16.75V41.2V41.1992V38.0008V38V34.8016V34.8008V31.6023V31.6016V28.4023ZM16.7498 38H13.5498V41.2H16.7498V38ZM13.5496 34.8008H10.3504H10.3496H7.15039V38.0008H10.3496V41.2H13.5496V38.0008V38V34.8008Z" fill="#FFC800"/>
<path fill-rule="evenodd" clip-rule="evenodd" d="M23.1486 25.2012H26.3486V22.0012H23.1486V25.2012ZM32.749 22.002H29.549V18.8027V18.802V15.6027H32.7487H32.749H35.9487V18.8027H32.749V22.002Z" fill="white"/>
<path fill-rule="evenodd" clip-rule="evenodd" d="M19.95 22.002H16.75V18.8027V18.802V15.6027H19.95V18.802V18.8027V22.002ZM13.5498 18.8027H16.7498V15.6027H13.5498V18.8027Z" fill="white"/>
</g>
<defs>
<clipPath id="clip0_2114_199782">
<rect width="48" height="48" fill="white" transform="translate(0.75)"/>
</clipPath>
</defs>
</svg>
