<svg width="81" height="80" viewBox="0 0 81 80" fill="none" xmlns="http://www.w3.org/2000/svg">
<rect x="1.125" y="0.5" width="79" height="79" rx="1.5" fill="white"/>
<rect x="1.125" y="0.5" width="79" height="79" rx="1.5" stroke="#EBEBEB"/>
<g clip-path="url(#clip0_2121_219461)">
<rect width="64" height="64" transform="translate(8.625 8)" fill="white"/>
<path fill-rule="evenodd" clip-rule="evenodd" d="M68.3594 12H72.6261V16.2656V16.2667V20.5273V20.5323V24.794H68.3594V20.5323H64.0938V16.2656H68.3594V12ZM59.8262 20.5273H64.0929V24.794H59.8262V20.5273ZM34.2266 24.7969H38.4922H38.4932H42.7589V29.0636H38.4932H38.4922H34.2266V24.7969ZM38.4932 29.0664H42.7589V33.332V33.3331V37.5987H38.4922V37.5986H34.2264V33.3319H34.2266V29.0664H38.4922H38.4932ZM42.7589 37.6016H38.493V37.6014H34.2264V41.8632V41.868V46.1299H38.4922V46.13H42.7589V41.8682V41.8633V37.6016ZM51.292 41.868V46.1289H51.2921V50.3956H51.292V54.6611H47.0265V54.6612H42.7598V50.3956V50.3945V46.13V46.1289V41.8682V41.8633V37.6016H47.0253V37.6014H51.292V41.8632V41.868ZM47.0265 54.668H42.7598V58.9336V58.9347V63.2003H47.0254H47.0265H51.2921V58.9336H51.292V54.6681H47.0265V54.668ZM29.957 33.332H25.6934V37.5987H29.957H29.96H34.2237V33.3331V33.332V29.0664H29.957V33.332ZM34.2264 54.6611H38.4922V54.6612H42.7589V50.3945H38.493V50.3944H34.2264V54.6611ZM42.7589 54.668H38.4922V54.6681H34.2264V58.9348H34.2266V63.2003H38.4922H38.4932H42.7589V58.9347V58.9336V54.668ZM34.2237 37.6016H29.96H29.957H25.6944H25.6934H21.4277V41.8633V41.8682V46.1289V46.13V50.3945V50.3956V54.6612H25.6934H25.6944H29.957H29.96H34.2237V50.3956V50.3945V46.13V46.1289V41.8682V41.8633V37.6016ZM25.6944 54.668H29.957H29.96H34.2237V58.9336V58.9347V63.2003H29.96H29.957H25.6934V58.9347H21.4277V54.668H25.6934H25.6944ZM59.8262 24.7969H64.0929V29.0636H59.8262V24.7969ZM59.8233 24.7969H55.5566V29.0636H59.8233V24.7969ZM64.0938 24.7969H68.3604V29.0636H64.0938V24.7969ZM34.2266 20.5273H38.4932V24.794H34.2266V20.5273ZM29.957 20.5323V24.794H34.2237V20.5323V20.5273V16.2656H29.96V12H25.6934V16.2656H21.4277V20.5273V20.5323V24.794H25.6944V20.5323V20.5273V16.2667H29.957V20.5273V20.5323ZM25.6934 24.7969H29.96V29.0636H25.6934V24.7969ZM21.4249 54.668H17.1582V58.9347H21.4249V54.668ZM17.1582 41.8633H21.4249V46.1289V46.13V50.3945V50.3956V54.6612H17.1582V50.3956V50.3945V46.13V46.1289V41.8633ZM51.2921 29.0664H47.0265H47.0254H42.7598V33.332V33.3331V37.5987H47.0265V37.5986H51.292V33.3331H51.2921V29.0664ZM12.8906 50.3945H17.1573V54.6612H12.8906V50.3945ZM12.8917 54.6681H8.625V58.9336V58.9348V63.2003H12.8906V67.462H17.1573V63.1953H12.8917V58.9348V58.9336V54.6681ZM21.4249 63.1953H17.1582V67.462H21.4249V63.1953ZM55.5566 29.0664H51.293V33.332V33.3331V37.5987H55.5566H55.5597H59.8233V33.3331V33.332V29.0664H55.5597H55.5566ZM51.293 46.13V50.3945V50.3956V54.6612H55.5566H55.5597H59.8233V50.3945H55.5597V46.13H59.8233V41.8682V41.8633V37.6016H55.5597H55.5566H51.293V41.8633V41.8682V46.1289V46.13ZM51.293 54.668H55.5566H55.5597H59.8233V58.9336V58.9347V63.2003H55.5597H55.5566H51.293V58.9347V58.9336V54.668ZM64.0927 33.3331H64.0929V29.0664H59.8262V33.3319H59.826V37.5986H64.0927V33.3331ZM72.6261 46.13V46.1289V41.8633H68.3604V37.6016H64.0938V41.8633V41.8682V46.1289V46.13V50.3945V50.3956V54.6612H68.3594H68.3604H72.6261V50.3956V50.3945V46.13ZM64.0927 41.868V46.1299H59.826V41.868V41.8632V37.6014H64.0927V41.8632V41.868ZM59.826 54.6681H64.0927V58.9348H59.826V54.6681ZM68.3604 54.668H64.0938V58.9347H68.3604V54.668ZM64.0938 33.332H68.3604V37.5987H64.0938V33.332Z" fill="#151515"/>
<path fill-rule="evenodd" clip-rule="evenodd" d="M55.5605 46.1328V50.3995H59.8272V46.1328H55.5605ZM59.8301 50.3995V46.1328H64.0968V50.3995H59.8301ZM59.8301 54.6729V50.4062H64.0968V54.6729H59.8301Z" fill="white"/>
<path fill-rule="evenodd" clip-rule="evenodd" d="M34.2227 46.1328V50.3995H38.4883H38.4893H42.755V46.1328H38.4893H38.4883H34.2227Z" fill="white"/>
<path fill-rule="evenodd" clip-rule="evenodd" d="M29.9609 16.2617L25.6943 16.2617L25.6943 20.5273L25.6943 20.5284L25.6943 24.794L29.9609 24.794L29.9609 20.5284L29.9609 20.5273L29.9609 16.2617Z" fill="white"/>
<path fill-rule="evenodd" clip-rule="evenodd" d="M34.2266 24.793L29.9599 24.793L29.9599 26.9263L34.2266 26.9263L34.2266 24.793ZM34.2266 26.9297L29.9599 26.9297L29.9599 29.063L34.2266 29.063L34.2266 26.9297Z" fill="white"/>
<path fill-rule="evenodd" clip-rule="evenodd" d="M68.3613 20.5312L64.0946 20.5312L64.0946 22.6641L64.0946 22.6646L64.0946 24.7974L68.3613 24.7974L68.3613 22.6646L68.3613 22.6641L68.3613 20.5312Z" fill="white"/>
</g>
<defs>
<clipPath id="clip0_2121_219461">
<rect width="64" height="64" fill="white" transform="translate(8.625 8)"/>
</clipPath>
</defs>
</svg>
