<svg width="81" height="80" viewBox="0 0 81 80" fill="none" xmlns="http://www.w3.org/2000/svg">
<rect x="1" y="0.5" width="79" height="79" rx="1.5" fill="white"/>
<rect x="1" y="0.5" width="79" height="79" rx="1.5" stroke="#EBEBEB"/>
<g clip-path="url(#clip0_2121_248193)">
<rect width="64" height="64" transform="translate(8.5 8)" fill="white"/>
<path fill-rule="evenodd" clip-rule="evenodd" d="M68.2344 12H72.5011V16.2656V16.2667V20.5273V20.5323V24.794H68.2344V20.5323H63.9688V16.2656H68.2344V12ZM59.7012 20.5273H63.9679V24.794H59.7012V20.5273ZM34.1016 24.7969H38.3672H38.3682H42.6339V29.0636H38.3682H38.3672H34.1016V24.7969ZM38.3682 29.0664H42.6339V33.332V33.3331V37.5987H38.3672V37.5986H34.1014V33.3319H34.1016V29.0664H38.3672H38.3682ZM42.6339 37.6016H38.368V37.6014H34.1014V41.8632V41.868V46.1299H38.3672V46.13H42.6339V41.8682V41.8633V37.6016ZM51.167 41.868V46.1289H51.1671V50.3956H51.167V54.6611H46.9015V54.6612H42.6348V50.3956V50.3945V46.13V46.1289V41.8682V41.8633V37.6016H46.9003V37.6014H51.167V41.8632V41.868ZM46.9015 54.668H42.6348V58.9336V58.9347V63.2003H46.9004H46.9015H51.1671V58.9336H51.167V54.6681H46.9015V54.668ZM29.832 33.332H25.5684V37.5987H29.832H29.835H34.0987V33.3331V33.332V29.0664H29.832V33.332ZM34.1014 54.6611H38.3672V54.6612H42.6339V50.3945H38.368V50.3944H34.1014V54.6611ZM42.6339 54.668H38.3672V54.6681H34.1014V58.9348H34.1016V63.2003H38.3672H38.3682H42.6339V58.9347V58.9336V54.668ZM34.0987 37.6016H29.835H29.832H25.5694H25.5684H21.3027V41.8633V41.8682V46.1289V46.13V50.3945V50.3956V54.6612H25.5684H25.5694H29.832H29.835H34.0987V50.3956V50.3945V46.13V46.1289V41.8682V41.8633V37.6016ZM25.5694 54.668H29.832H29.835H34.0987V58.9336V58.9347V63.2003H29.835H29.832H25.5684V58.9347H21.3027V54.668H25.5684H25.5694ZM59.7012 24.7969H63.9679V29.0636H59.7012V24.7969ZM59.6983 24.7969H55.4316V29.0636H59.6983V24.7969ZM63.9688 24.7969H68.2354V29.0636H63.9688V24.7969ZM34.1016 20.5273H38.3682V24.794H34.1016V20.5273ZM29.832 20.5323V24.794H34.0987V20.5323V20.5273V16.2656H29.835V12H25.5684V16.2656H21.3027V20.5273V20.5323V24.794H25.5694V20.5323V20.5273V16.2667H29.832V20.5273V20.5323ZM25.5684 24.7969H29.835V29.0636H25.5684V24.7969ZM21.2999 54.668H17.0332V58.9347H21.2999V54.668ZM17.0332 41.8633H21.2999V46.1289V46.13V50.3945V50.3956V54.6612H17.0332V50.3956V50.3945V46.13V46.1289V41.8633ZM51.1671 29.0664H46.9015H46.9004H42.6348V33.332V33.3331V37.5987H46.9015V37.5986H51.167V33.3331H51.1671V29.0664ZM12.7656 50.3945H17.0323V54.6612H12.7656V50.3945ZM12.7667 54.6681H8.5V58.9336V58.9348V63.2003H12.7656V67.462H17.0323V63.1953H12.7667V58.9348V58.9336V54.6681ZM21.2999 63.1953H17.0332V67.462H21.2999V63.1953ZM55.4316 29.0664H51.168V33.332V33.3331V37.5987H55.4316H55.4347H59.6983V33.3331V33.332V29.0664H55.4347H55.4316ZM51.168 46.13V50.3945V50.3956V54.6612H55.4316H55.4347H59.6983V50.3945H55.4347V46.13H59.6983V41.8682V41.8633V37.6016H55.4347H55.4316H51.168V41.8633V41.8682V46.1289V46.13ZM51.168 54.668H55.4316H55.4347H59.6983V58.9336V58.9347V63.2003H55.4347H55.4316H51.168V58.9347V58.9336V54.668ZM63.9677 33.3331H63.9679V29.0664H59.7012V33.3319H59.701V37.5986H63.9677V33.3331ZM72.5011 46.13V46.1289V41.8633H68.2354V37.6016H63.9688V41.8633V41.8682V46.1289V46.13V50.3945V50.3956V54.6612H68.2344H68.2354H72.5011V50.3956V50.3945V46.13ZM63.9677 41.868V46.1299H59.701V41.868V41.8632V37.6014H63.9677V41.8632V41.868ZM59.701 54.6681H63.9677V58.9348H59.701V54.6681ZM68.2354 54.668H63.9688V58.9347H68.2354V54.668ZM63.9688 33.332H68.2354V37.5987H63.9688V33.332Z" fill="#151515"/>
<path fill-rule="evenodd" clip-rule="evenodd" d="M55.4355 46.1328V50.3995H59.7022V46.1328H55.4355ZM59.7051 50.3995V46.1328H63.9718V50.3995H59.7051ZM59.7051 54.6729V50.4062H63.9718V54.6729H59.7051Z" fill="white"/>
<path fill-rule="evenodd" clip-rule="evenodd" d="M34.0977 46.1328V50.3995H38.3633H38.3643H42.63V46.1328H38.3643H38.3633H34.0977Z" fill="white"/>
<path fill-rule="evenodd" clip-rule="evenodd" d="M29.835 16.2617L25.5683 16.2617L25.5683 20.5273L25.5683 20.5284L25.5683 24.794L29.835 24.794L29.835 20.5284L29.835 20.5273L29.835 16.2617Z" fill="white"/>
<path fill-rule="evenodd" clip-rule="evenodd" d="M34.1006 24.793L29.8339 24.793L29.8339 26.9263L34.1006 26.9263L34.1006 24.793ZM34.1006 26.9297L29.8339 26.9297L29.8339 29.063L34.1006 29.063L34.1006 26.9297Z" fill="white"/>
<path fill-rule="evenodd" clip-rule="evenodd" d="M68.2354 20.5312L63.9687 20.5312L63.9687 22.6641L63.9687 22.6646L63.9687 24.7974L68.2354 24.7974L68.2354 22.6646L68.2354 22.6641L68.2354 20.5312Z" fill="white"/>
</g>
<defs>
<clipPath id="clip0_2121_248193">
<rect width="64" height="64" fill="white" transform="translate(8.5 8)"/>
</clipPath>
</defs>
</svg>
