<svg width="49" height="48" viewBox="0 0 49 48" fill="none" xmlns="http://www.w3.org/2000/svg">
<rect x="0.75" width="48" height="48" fill="white"/>
<g clip-path="url(#clip0_2121_184081)">
<rect width="48" height="48" transform="translate(0.75)" fill="white"/>
<path fill-rule="evenodd" clip-rule="evenodd" d="M45.5498 3H48.7498V6.19922V6.20001V9.39453V9.39923V12.5945H45.5498V9.39923H42.3506V6.19922H45.5498V3ZM39.1504 9.39453H42.3504V12.5945H39.1504V9.39453ZM19.9502 12.5977H23.1502V15.7977H19.9502V12.5977ZM23.1504 15.8008H26.3504V19V19.0008V22.2H23.1504V19.0008V19V15.8008ZM26.3504 22.2012H23.1504V25.3984V25.4012V28.5985H26.3504V25.4012V25.3984V22.2012ZM26.3511 22.2012H29.5508H29.5511H32.75H32.7508H35.95V25.3984V25.4012V28.5977V28.5985V31.7969V31.7977V34.9969H32.7508H32.75H29.5511H29.5508H26.3511V31.7977V31.7969V28.5985V28.5977V25.4012V25.3984V22.2012ZM29.5508 35H26.3511V38.1992V38.2V41.3992H29.5508H29.5511H32.75H32.7508H35.95V38.2V38.1992V35H32.7508H32.75H29.5511H29.5508ZM23.1502 22.2V19.0008V19V15.8008H19.9502V19V19.0008V22.2H23.1502ZM16.7508 22.2H16.75H13.5508V19H16.75V15.8008H19.95V19V19.0008V22.2H16.7508ZM19.9502 22.2012H23.1502V25.3984V25.4012V28.5985H19.9502V25.4012V25.3984V22.2012ZM23.1504 31.7969H26.3504V34.9969H23.1504V31.7969ZM26.3504 35H23.1504V38.1992V38.2V41.3992H26.3504V38.2V38.1992V35ZM19.95 22.2012H16.7508H16.75H13.5508V25.3984V25.4012V28.5977V28.5985V31.7969V31.7977V34.9969H16.75H16.7508H19.95V31.7977V31.7969V28.5985V28.5977V25.4012V25.3984V22.2012ZM19.9502 31.7969H23.1502V34.9969H19.9502V31.7969ZM23.1502 35H19.9502V38.1992V38.2V41.3992H23.1502V38.2V38.1992V35ZM13.5508 35H16.75H16.7508H19.95V38.1992V38.2V41.3992H16.7508H16.75H13.5508V38.2V38.1992V35ZM26.3504 12.5977H23.1504V15.7977H26.3504V12.5977ZM39.1504 12.5977H42.3504V15.7977H39.1504V12.5977ZM39.1502 12.5977H35.9502V15.7977H39.1502V12.5977ZM42.3506 12.5977H45.5506V15.7977H42.3506V12.5977ZM19.9502 9.39453H23.1502V12.5945H19.9502V9.39453ZM16.75 9.39923V12.5945H19.95V9.39923V9.39453V6.19922H16.7508V3H13.5508V6.20001H16.75V9.39453V9.39923ZM10.3506 6.19922H13.5506V9.39453V9.39923V12.5945H10.3506V9.39923V9.39453V6.19922ZM13.5508 12.5977H16.7508V15.7977H13.5508V12.5977ZM13.5506 31.7969V28.5985V28.5977V25.4012V25.3984V22.2012H10.3506V25.3984V25.4012V28.5977V28.5985V31.7969V31.7977V34.9969H13.5506V31.7977V31.7969ZM10.3499 35H7.1499V38.2H10.3499V35ZM10.3506 35H13.5506V38.2H10.3506V35ZM7.1499 25.3984H10.3499V28.5977V28.5985V31.7969V31.7977V34.9969H7.15021H7.1499H3.9502V31.7969H7.1499V28.5985V28.5977V25.3984ZM32.75 15.8008H29.5511H29.5508H26.3511V19V19.0008V22.2H29.5508H29.5511H32.75H32.7508H35.95V19.0008V19V15.8008H32.7508H32.75ZM3.95001 35H0.75V38.1992V38.2V41.3992H3.95001V38.2V38.1992V35ZM10.3499 41.3965H7.15021H7.1499H3.9502V44.5965H7.1499H7.15021H10.3499V41.3965ZM35.9502 19.0008V22.2H39.1502V19.0008V19V15.8008H35.9502V19V19.0008ZM39.1504 22.2V19.0008V19V15.8008H42.3504V19V19.0008V22.2H39.1504ZM39.1502 28.5985V25.4012V25.3984V22.2012H35.9502V25.3984V25.4012V28.5985H39.1502ZM48.7498 28.5985V28.5977V25.3984H45.5506V22.2012H42.3506V25.3984V25.4012V28.5977V28.5985V31.7969V31.7977V34.9969H45.5498H45.5506H48.7498V31.7977V31.7969V28.5985ZM39.1502 31.7969H35.9502V34.9969H39.1502V31.7969ZM35.9502 35H39.1502V38.1992V38.2V41.3992H35.9502V38.2V38.1992V35ZM42.3504 25.4012V28.5985H39.1504V25.4012V25.3984V22.2012H42.3504V25.3984V25.4012ZM39.1504 35H42.3504V38.2H39.1504V35ZM45.5506 35H42.3506V38.2H45.5506V35ZM42.3506 19H45.5506V22.2H42.3506V19Z" fill="#151515"/>
<path fill-rule="evenodd" clip-rule="evenodd" d="M35.9512 28.5996V31.7996H39.1512V28.5996H35.9512ZM39.1519 31.7996V28.5996H42.3519V31.7996H39.1519ZM39.1519 35.0047V31.8047H42.3519V35.0047H39.1519Z" fill="white"/>
<path fill-rule="evenodd" clip-rule="evenodd" d="M19.9497 28.5996V31.7996H23.1494H23.1497H26.3494V28.5996H23.1497H23.1494H19.9497Z" fill="white"/>
<path fill-rule="evenodd" clip-rule="evenodd" d="M13.5515 9.39533L13.551 9.39533L13.551 6.19531L16.751 6.19531L16.751 9.39453L16.7515 9.39453L16.7515 12.5945L13.5515 12.5945L13.5515 9.39533Z" fill="white"/>
<path fill-rule="evenodd" clip-rule="evenodd" d="M19.9507 12.5938L16.7507 12.5937L16.7507 14.1938L19.9507 14.1938L19.9507 12.5938ZM19.9505 14.1953L16.7505 14.1953L16.7505 15.7953L19.9505 15.7953L19.9505 14.1953Z" fill="white"/>
<path fill-rule="evenodd" clip-rule="evenodd" d="M45.5508 9.39844L42.3508 9.39844L42.3508 10.998L42.3508 10.9984L42.3508 12.5981L45.5508 12.5981L45.5508 10.9984L45.5508 10.998L45.5508 9.39844Z" fill="white"/>
</g>
<defs>
<clipPath id="clip0_2121_184081">
<rect width="48" height="48" fill="white" transform="translate(0.75)"/>
</clipPath>
</defs>
</svg>
