<svg width="48" height="48" viewBox="0 0 48 48" fill="none" xmlns="http://www.w3.org/2000/svg">
<g clip-path="url(#clip0_5453_35149)">
<path d="M25.0784 14C25.3724 14 25.6354 14.183 25.7344 14.457L26.4404 16.414C26.693 16.4767 26.911 16.5407 27.0944 16.606C27.2944 16.6773 27.5544 16.7873 27.8744 16.936L29.5184 16.066C29.6525 15.9946 29.8062 15.9687 29.9563 15.9924C30.1064 16.016 30.2447 16.0878 30.3504 16.197L31.7964 17.692C31.9884 17.891 32.0424 18.182 31.9344 18.436L31.1634 20.243C31.2907 20.4777 31.3934 20.679 31.4714 20.847C31.5554 21.029 31.6594 21.2823 31.7834 21.607L33.5804 22.377C33.8504 22.492 34.0174 22.762 33.9994 23.051L33.8674 25.126C33.8583 25.2608 33.8099 25.39 33.7282 25.4975C33.6464 25.6051 33.5349 25.6863 33.4074 25.731L31.7054 26.336C31.6567 26.5707 31.6054 26.7727 31.5514 26.942C31.464 27.2044 31.3645 27.4627 31.2534 27.716L32.1084 29.606C32.1692 29.7387 32.1857 29.8875 32.1554 30.0303C32.1252 30.1731 32.0498 30.3024 31.9404 30.399L30.3144 31.851C30.2075 31.9466 30.0738 32.0071 29.9315 32.0243C29.7891 32.0414 29.6449 32.0145 29.5184 31.947L27.8424 31.059C27.5804 31.1984 27.3099 31.321 27.0324 31.426L26.3004 31.7L25.6504 33.5C25.6017 33.6315 25.5147 33.7454 25.4006 33.8269C25.2865 33.9084 25.1505 33.9537 25.0104 33.957L23.1104 34C22.9664 34.0033 22.8249 33.9622 22.7052 33.8822C22.5855 33.8022 22.4934 33.6873 22.4414 33.553L21.6754 31.526C21.4141 31.4365 21.1553 31.3398 20.8994 31.236C20.6901 31.1454 20.484 31.0477 20.2814 30.943L18.3814 31.755C18.2562 31.8087 18.1181 31.8247 17.984 31.801C17.8499 31.7774 17.7256 31.7152 17.6264 31.622L16.2204 30.303C16.1153 30.2055 16.0437 30.0773 16.0159 29.9366C15.9881 29.796 16.0054 29.6502 16.0654 29.52L16.8824 27.74C16.7741 27.529 16.6734 27.3142 16.5804 27.096C16.472 26.8288 16.372 26.5584 16.2804 26.285L14.4904 25.74C14.3449 25.696 14.218 25.6052 14.1294 25.4817C14.0408 25.3582 13.9954 25.2089 14.0004 25.057L14.0704 23.136C14.0756 23.0107 14.1148 22.8892 14.1839 22.7846C14.2529 22.6799 14.3492 22.596 14.4624 22.542L16.3404 21.64C16.427 21.3213 16.5037 21.072 16.5704 20.892C16.6647 20.6503 16.7695 20.4127 16.8844 20.18L16.0704 18.46C16.0081 18.3295 15.9891 18.1825 16.0161 18.0405C16.0431 17.8984 16.1146 17.7686 16.2204 17.67L17.6244 16.344C17.7227 16.251 17.8458 16.1884 17.9789 16.1639C18.112 16.1394 18.2494 16.154 18.3744 16.206L20.2724 16.99C20.4817 16.8507 20.6724 16.736 20.8444 16.646C21.049 16.538 21.3237 16.4227 21.6684 16.3L22.3284 14.459C22.3777 14.3246 22.467 14.2085 22.5843 14.1265C22.7016 14.0444 22.8412 14.0002 22.9844 14H25.0784ZM24.5884 15.377H23.4754L22.8704 17.071C22.8343 17.1695 22.7766 17.2587 22.7015 17.3319C22.6264 17.4051 22.5358 17.4605 22.4364 17.494C22.0004 17.639 21.6854 17.764 21.5014 17.861C21.3054 17.9643 21.0587 18.121 20.7614 18.331C20.6646 18.3992 20.5521 18.4418 20.4344 18.4548C20.3167 18.4677 20.1976 18.4506 20.0884 18.405L18.2584 17.65L17.5454 18.324L18.2884 19.894C18.3328 19.9874 18.3554 20.0897 18.3544 20.1932C18.3534 20.2966 18.3287 20.3985 18.2824 20.491C18.0824 20.892 17.9474 21.188 17.8794 21.37C17.7746 21.6728 17.6845 21.9805 17.6094 22.292C17.5842 22.3895 17.5381 22.4802 17.4742 22.558C17.4103 22.6357 17.3301 22.6985 17.2394 22.742L15.4494 23.601L15.4134 24.581L17.0334 25.073C17.2484 25.138 17.4184 25.303 17.4894 25.515C17.65 25.9963 17.7767 26.3483 17.8694 26.571C17.9913 26.8527 18.1261 27.1287 18.2734 27.398C18.3232 27.4907 18.3508 27.5936 18.3541 27.6988C18.3574 27.8039 18.3363 27.9084 18.2924 28.004L17.5414 29.642L18.2524 30.31L20.0344 29.548C20.1303 29.5068 20.2342 29.4875 20.3386 29.4917C20.4429 29.4958 20.545 29.5233 20.6374 29.572C21.004 29.764 21.2737 29.8967 21.4464 29.97C21.6214 30.043 21.9564 30.165 22.4424 30.331C22.5386 30.3644 22.6264 30.4183 22.6997 30.4892C22.7729 30.56 22.8298 30.6459 22.8664 30.741L23.5744 32.612L24.5004 32.592L25.0974 30.938C25.132 30.8439 25.1864 30.7583 25.257 30.687C25.3275 30.6158 25.4126 30.5605 25.5064 30.525L26.5434 30.137C26.806 30.0403 27.123 29.887 27.4944 29.677C27.597 29.619 27.7125 29.5879 27.8303 29.5865C27.9482 29.5851 28.0644 29.6135 28.1684 29.669L29.7454 30.504L30.6324 29.713L29.8564 28C29.8165 27.9121 29.7957 27.8167 29.7955 27.7201C29.7954 27.6236 29.8158 27.5281 29.8554 27.44C30.0374 27.033 30.1604 26.726 30.2224 26.53C30.2844 26.3367 30.346 26.0617 30.4074 25.705C30.4283 25.5841 30.4812 25.4709 30.5605 25.3772C30.6398 25.2836 30.7426 25.2127 30.8584 25.172L32.5064 24.587L32.5784 23.447L30.9584 22.753C30.8724 22.7159 30.7947 22.6619 30.7299 22.5942C30.6652 22.5265 30.6146 22.4466 30.5814 22.359C30.4661 22.0402 30.34 21.7253 30.2034 21.415C30.0742 21.1447 29.9341 20.8798 29.7834 20.621C29.731 20.5296 29.7006 20.4273 29.6945 20.3221C29.6884 20.217 29.7069 20.1118 29.7484 20.015L30.4734 18.315L29.7094 17.525L28.2214 18.313C28.1243 18.3648 28.0164 18.3929 27.9064 18.3952C27.7964 18.3974 27.6875 18.3737 27.5884 18.326C27.2727 18.1686 26.9497 18.0264 26.6204 17.9C26.3399 17.8053 26.0536 17.7285 25.7634 17.67C25.6485 17.6451 25.5417 17.5916 25.4529 17.5145C25.3641 17.4375 25.2962 17.3393 25.2554 17.229L24.5884 15.377ZM24.0244 19.641C26.4594 19.641 28.4344 21.594 28.4344 24.002C28.4344 26.41 26.4594 28.362 24.0244 28.362C21.5894 28.362 19.6144 26.41 19.6144 24.002C19.6144 21.594 21.5884 19.642 24.0244 19.642M24.0244 21.02C22.3574 21.02 21.0064 22.355 21.0064 24.003C21.0064 25.651 22.3574 26.987 24.0244 26.987C25.6914 26.987 27.0414 25.651 27.0414 24.003C27.0414 22.355 25.6914 21.02 24.0244 21.02Z" fill="#4B4B4B"/>
</g>
<defs>
<clipPath id="clip0_5453_35149">
<rect width="20" height="20" fill="white" transform="translate(14 14)"/>
</clipPath>
</defs>
</svg>
