<svg width="178" height="178" viewBox="0 0 178 178" fill="none" xmlns="http://www.w3.org/2000/svg">
<rect width="178" height="178" rx="4" fill="white"/>
<path d="M89 14C81.7571 14 76 19.7571 76 27C76 34.2429 81.7571 40 89 40C96.2429 40 102 34.2429 102 27C102 19.7571 96.2429 14 89 14ZM94.0143 33.5L89 28.4857L83.9857 33.5L82.5 32.0143L87.5143 27L82.5 21.9857L83.9857 20.5L89 25.5143L94.0143 20.5L95.5 21.9857L90.4857 27L95.5 32.0143L94.0143 33.5Z" fill="#FE7435"/>
<g clip-path="url(#clip0_2193_353927)">
<path fill-rule="evenodd" clip-rule="evenodd" d="M120.668 95H126.001V100.332V100.333V105.659V105.665V110.993H120.668V105.665H115.336V100.332H120.668V95ZM110.001 105.659H115.335V110.993H110.001V105.659ZM78.002 110.996H83.334H83.3353H88.6673V116.329H83.3353H83.334H78.002V110.996ZM83.3353 116.333H88.6673V121.665V121.666V126.998H83.3353H83.334H78.002V121.666V121.665V116.333H83.334H83.3353ZM88.6673 127.002H83.3353H83.334H78.002V132.329V132.335V137.662H83.334H83.3353H88.6673V132.335V132.329V127.002ZM99.3338 137.661V137.662V142.993V142.994V148.327H94.0018H94.0005H88.6685V142.994V142.993V137.662V137.661V132.335V132.329V127.002H94.0005H94.0018H99.3338V132.329V132.335V137.661ZM94.0005 148.335H88.6685V153.667V153.668V159H94.0005H94.0018H99.3338V153.668V153.667V148.335H94.0018H94.0005ZM72.665 121.665H67.3354V126.998H72.665H72.6688H77.9984V121.666V121.665V116.333H72.665V121.665ZM83.3353 142.993H88.6673V148.327H83.3353H83.334H78.002V142.993H83.334H83.3353ZM88.6673 148.335H83.3353H83.334H78.002V153.667V153.668V159H83.334H83.3353H88.6673V153.668V153.667V148.335ZM77.9984 127.002H72.6688H72.665H67.3368H67.3354H62.0034V132.329V132.335V137.661V137.662V142.993V142.994V148.327H67.3354H67.3368H72.665H72.6688H77.9984V142.994V142.993V137.662V137.661V132.335V132.329V127.002ZM67.3368 148.335H72.665H72.6688H77.9984V153.667V153.668V159H72.6688H72.665H67.3354V153.668H62.0034V148.335H67.3354H67.3368ZM110.001 110.996H115.335V116.329H110.001V110.996ZM109.998 110.996H104.665V116.329H109.998V110.996ZM115.336 110.996H120.669V116.329H115.336V110.996ZM78.002 105.659H83.3353V110.993H78.002V105.659ZM72.665 105.665V110.993H77.9984V105.665V105.659V100.332H72.6688V95H67.3354V100.332H62.0034V105.659V105.665V110.993H67.3368V105.665V105.659V100.333H72.665V105.659V105.665ZM67.3354 110.996H72.6688V116.329H67.3354V110.996ZM61.9999 148.335H56.6665V153.668H61.9999V148.335ZM56.6665 132.329H61.9999V137.661V137.662V142.993V142.994V148.327H56.6665V142.994V142.993V137.662V137.661V132.329ZM99.3338 116.333H94.0018H94.0005H88.6685V121.665V121.666V126.998H94H94.0018H99.3334V121.666H99.3338V116.333ZM51.332 142.993H56.6654V148.327H51.332V142.993ZM51.3334 148.335H46V153.667V153.668V159H51.332V164.327H56.6654V158.994H51.3334V153.668V153.667V148.335ZM61.9999 158.994H56.6665V164.327H61.9999V158.994ZM104.665 116.333H99.335V121.665V121.666V126.998H104.665H104.668H109.998V121.666V121.665V116.333H104.668H104.665ZM99.335 137.662V142.993V142.994V148.327H104.665H104.668H109.998V142.993H104.668V137.662H109.998V132.335V132.329V127.002H104.668H104.665H99.335V132.329V132.335V137.661V137.662ZM99.335 148.335H104.665H104.668H109.998V153.667V153.668V159H104.668H104.665H99.335V153.668V153.667V148.335ZM110.001 126.998V121.666V121.665V116.333H115.335V121.665V121.666V126.998H110.001ZM126.001 137.662V137.661V132.329H120.669V127.002H115.336V132.329V132.335V137.661V137.662V142.993V142.994V148.327H120.668H120.669H126.001V142.994V142.993V137.662ZM115.335 132.335V137.662H110.001V132.335V132.329V127.002H115.335V132.329V132.335ZM110.001 148.335H115.335V153.668H110.001V148.335ZM120.669 148.335H115.336V153.668H120.669V148.335ZM115.336 121.665H120.669V126.998H115.336V121.665Z" fill="#4B4B4B"/>
<path fill-rule="evenodd" clip-rule="evenodd" d="M104.669 137.668V143.001H110.002V137.668H104.669ZM110.006 143.001V137.668H115.339V143.001H110.006ZM110.006 148.343V143.01H115.339V148.343H110.006Z" fill="white"/>
<path fill-rule="evenodd" clip-rule="evenodd" d="M77.998 137.668V143.001H83.3301H83.3314H88.6634V137.668H83.3314H83.3301H77.998Z" fill="white"/>
<path fill-rule="evenodd" clip-rule="evenodd" d="M72.6689 100.328L67.3356 100.328L67.3356 105.66L67.3356 105.661L67.3356 110.994L72.6689 110.994L72.6689 105.661L72.6689 105.66L72.6689 100.328Z" fill="white"/>
<path fill-rule="evenodd" clip-rule="evenodd" d="M78.001 110.992L72.6676 110.992L72.6676 113.659L78.001 113.659L78.001 110.992ZM78.001 113.663L72.6676 113.663L72.6676 116.33L78.001 116.33L78.001 113.663Z" fill="white"/>
<path fill-rule="evenodd" clip-rule="evenodd" d="M120.67 105.664L115.337 105.664L115.337 108.33L115.337 108.331L115.337 110.997L120.67 110.997L120.67 108.331L120.67 108.33L120.67 105.664Z" fill="white"/>
</g>
<rect x="135" y="79" width="6" height="18" fill="#AEAEAE"/>
<rect x="144" y="85" width="6" height="24" fill="#848484"/>
<rect x="126" y="73" width="6" height="12" fill="#C2C2C2"/>
<path fill-rule="evenodd" clip-rule="evenodd" d="M34 97H40V103H34V97ZM34 109V103H28V109H34ZM40 109V115H34V109H40ZM40 109V103H46V109H40Z" fill="#DDDDDD"/>
<defs>
<clipPath id="clip0_2193_353927">
<rect width="80" height="80" fill="white" transform="translate(46 90)"/>
</clipPath>
</defs>
</svg>
