<svg width="81" height="80" viewBox="0 0 81 80" fill="none" xmlns="http://www.w3.org/2000/svg">
<rect x="1.125" y="0.5" width="79" height="79" rx="1.5" fill="white"/>
<rect x="1.125" y="0.5" width="79" height="79" rx="1.5" stroke="#EBEBEB"/>
<g clip-path="url(#clip0_2121_219445)">
<rect width="64" height="64" transform="translate(8.625 11)" fill="white"/>
<path fill-rule="evenodd" clip-rule="evenodd" d="M24.625 15.0039H28.625H32.625V19H36.625H40.625H44.625H48.625V15.0039H52.625H56.625V19H60.625V23H56.625H52.625H48.625H44.625H40.625H36.625H32.625H28.625H24.625H20.625V19H24.625V15.0039ZM24.625 23.0039H20.625V27H16.625V31H20.625H24.625H28.625V27.0039H32.625V31H36.625H40.625H44.625H48.625V27.0039H52.625V31H56.625H60.625H64.625V27H60.625V23.0039H56.625H52.625H48.625H44.625H40.625H36.625H32.625H28.625H24.625ZM16.625 31.0039H12.625V35.0039H8.625V39.0039V43V43.0039V47H12.625V43.0039H16.625V39.0039H20.625V43.0039H24.625V47H28.625H32.625H36.625H40.625H44.625H48.625H52.625H56.625H60.625V43.0039V43V39.0039H64.625V43.0039H68.625V47H72.625V43.0039V43V39.0039V35.0039H68.625V31.0039H64.625H60.625H56.625H52.625H48.625H44.625H40.625H36.625H32.625H28.625H24.625H20.625H16.625ZM32.625 39.0039V35.0039H36.625H40.625H44.625H48.625V39.0039V43H44.625V39.0039H40.625H36.625H32.625ZM44.625 47.0039H48.625H52.625H56.625V51.0039H52.625V55H48.625H44.625H40.625H36.625H32.625V51.0039H28.625H24.625V47.0039H28.625H32.625H36.625H40.625H44.625ZM44.625 55.0039H40.625H36.625V59.0039V63.0039H32.625V67.0039H36.625V63.0039H40.625V59.0039H44.625V55.0039Z" fill="#04BA70"/>
<rect x="52.625" y="31" width="4" height="4" transform="rotate(180 52.625 31)" fill="white"/>
<rect x="32.625" y="31" width="4" height="4" transform="rotate(180 32.625 31)" fill="white"/>
<path fill-rule="evenodd" clip-rule="evenodd" d="M32.625 39H44.625V43H48.625V39V35H32.625V39Z" fill="white"/>
</g>
<defs>
<clipPath id="clip0_2121_219445">
<rect width="64" height="64" fill="white" transform="translate(8.625 11)"/>
</clipPath>
</defs>
</svg>
