<svg width="81" height="80" viewBox="0 0 81 80" fill="none" xmlns="http://www.w3.org/2000/svg">
<rect x="1" y="0.5" width="79" height="79" rx="1.5" fill="white"/>
<rect x="1" y="0.5" width="79" height="79" rx="1.5" stroke="#EBEBEB"/>
<g clip-path="url(#clip0_2121_232731)">
<rect width="64" height="64" transform="translate(8.5 8)" fill="white"/>
<path fill-rule="evenodd" clip-rule="evenodd" d="M24.5 12.0039H28.5H32.5V16H36.5H40.5H44.5H48.5V12.0039H52.5H56.5V16H60.5V20H56.5H52.5H48.5H44.5H40.5H36.5H32.5H28.5H24.5H20.5V16H24.5V12.0039ZM24.5 20.0039H20.5V24H16.5V28H20.5H24.5H28.5V24.0039H32.5V28H36.5H40.5H44.5H48.5V24.0039H52.5V28H56.5H60.5H64.5V24H60.5V20.0039H56.5H52.5H48.5H44.5H40.5H36.5H32.5H28.5H24.5ZM16.5 28.0039H12.5V32.0039H8.5V36.0039V40V40.0039V44H12.5V40.0039H16.5V36.0039H20.5V40.0039H24.5V44H28.5H32.5H36.5H40.5H44.5H48.5H52.5H56.5H60.5V40.0039V40V36.0039H64.5V40.0039H68.5V44H72.5V40.0039V40V36.0039V32.0039H68.5V28.0039H64.5H60.5H56.5H52.5H48.5H44.5H40.5H36.5H32.5H28.5H24.5H20.5H16.5ZM32.5 36.0039V32.0039H36.5H40.5H44.5H48.5V36.0039V40H44.5V36.0039H40.5H36.5H32.5ZM44.5 44.0039H48.5H52.5H56.5V48.0039H52.5V52H48.5H44.5H40.5H36.5H32.5V48.0039H28.5H24.5V44.0039H28.5H32.5H36.5H40.5H44.5ZM44.5 52.0039H40.5H36.5V56.0039V60.0039H32.5V64.0039H36.5V60.0039H40.5V56.0039H44.5V52.0039Z" fill="#04BA70"/>
<rect x="52.5" y="28" width="4" height="4" transform="rotate(180 52.5 28)" fill="white"/>
<rect x="32.5" y="28" width="4" height="4" transform="rotate(180 32.5 28)" fill="white"/>
<path fill-rule="evenodd" clip-rule="evenodd" d="M32.5 36H44.5V40H48.5V36V32H32.5V36Z" fill="white"/>
</g>
<defs>
<clipPath id="clip0_2121_232731">
<rect width="64" height="64" fill="white" transform="translate(8.5 8)"/>
</clipPath>
</defs>
</svg>
