<svg width="49" height="48" viewBox="0 0 49 48" fill="none" xmlns="http://www.w3.org/2000/svg">
<rect x="0.75" width="48" height="48" fill="#DDDDDD"/>
<g clip-path="url(#clip0_2114_199783)">
<rect width="48" height="48" transform="translate(0.75)" fill="white"/>
<path fill-rule="evenodd" clip-rule="evenodd" d="M12.75 3.00391H15.75V6V6.00391V9H12.751H12.75H9.75098V6H12.75V3.00391ZM15.751 3.00391H18.751V6H21.751H24.751V9H21.751H18.751H15.751V6.00391V6V3.00391ZM27.751 6H24.752V9H27.751H27.752H30.751H33.751H36.751H39.751V6H36.751V3.00391H33.751H30.751V6H27.752H27.751ZM12.75 9.00391H9.75098V12H6.75195V15H9.75098H9.75195H12.75H12.751H15.75V12.0039V12V9.00391H12.751H12.75ZM6.75098 15.0039H3.75098V18.0039H0.750977V21.0039V24V24.0039V27H3.75098V24.0039H6.75098V21.0039V18.0039V15.0039ZM15.751 21.0039V24V24.0039V27H18.751H21.751H24.751V24.0039V24V21.0039H21.751H18.751V18.0039H21.751H24.751V15.0039H21.751H18.751H15.751V18.0039V21.0039ZM33.751 15.0039H36.751H39.751V18.0039V21.0039V24V24.0039V27H36.751H33.751H30.751H27.752H27.751H24.752V24.0039V24V21.0039H27.752V24H30.751V21.0039V18.0039H27.752H27.751H24.752V15.0039H27.751H27.752H30.751H33.751ZM27.752 27.0039H30.751H33.751H36.751V30.0039H33.751V33H30.751H27.752H27.751H24.752V30.0039V30V27.0039H27.751H27.752ZM27.752 33.0039H24.752V36.0039H27.752V33.0039ZM24.751 36.0039V39.0039H21.751V36.0039V33.0039H24.751V36.0039ZM21.751 39.0039V42.0039H18.751V39.0039H21.751ZM21.751 27.0039H24.751V30V30.0039V33H21.751H18.751V30.0039H15.751V27.0039H18.751H21.751ZM9.75098 24.0039H12.75V27H15.75V24.0039V24V21.0039V18.0039V15.0039H12.751H12.75H9.75195H9.75098H6.75195V18.0039V21.0039H9.75098V24.0039ZM15.751 9.00391H18.751H21.751H24.751V12V12.0039V15H21.751H18.751V12.0039H15.751V9.00391ZM15.75 27.0039H12.75V30.0039H15.75V27.0039ZM27.752 9.00391H30.751H33.751H36.751H39.751V12V12.0039V15H36.751H33.751V12.0039H30.751V15H27.752H27.751H24.752V12.0039V12V9.00391H27.751H27.752ZM42.751 15.0039H39.752V18.0039V21.0039H42.751V24.0039H45.751V27H48.751V24.0039V24V21.0039V18.0039H45.751V15.0039H42.752H42.751ZM42.752 12H39.752V15H42.752V12Z" fill="#04BA70"/>
<rect x="33.75" y="15" width="3" height="3" transform="rotate(180 33.75 15)" fill="white"/>
<rect x="18.75" y="15" width="3" height="3" transform="rotate(180 18.75 15)" fill="white"/>
<path fill-rule="evenodd" clip-rule="evenodd" d="M18.75 21H27.75V24H30.75V21V18H18.75V21Z" fill="white"/>
</g>
<defs>
<clipPath id="clip0_2114_199783">
<rect width="48" height="48" fill="white" transform="translate(0.75)"/>
</clipPath>
</defs>
</svg>
